<?xml version="1.0" encoding="UTF-8"?>
<svg width="1449px" height="990px" viewBox="0 0 1449 990" version="1.1" xmlns="http://www.w3.org/2000/svg" xmlns:xlink="http://www.w3.org/1999/xlink">
    <title>hello</title>
    <g id="Page-1" stroke="none" stroke-width="1" fill="none" fill-rule="evenodd">
        <g id="Group" transform="translate(-74.000000, 0.000000)" fill="#161515">
            <rect id="Rectangle" x="74" y="14" width="1449" height="976"></rect>
            <path d="M110.5,0 L147,14 L74,14 L110.5,0 Z M183.5,0 L220,14 L147,14 L183.5,0 Z M256.5,0 L293,14 L220,14 L256.5,0 Z M329.5,0 L366,14 L293,14 L329.5,0 Z M402.5,0 L439,14 L366,14 L402.5,0 Z M545.5,0 L582,14 L439,14 L475.5,0 L510.5,13.425 L545.5,0 Z M618.5,0 L655,14 L582,14 L618.5,0 Z M691.5,0 L728,14 L655,14 L691.5,0 Z M764.5,0 L801,14 L728,14 L764.5,0 Z M837.5,0 L874,14 L801,14 L837.5,0 Z M980.5,0 L1017,14 L874,14 L910.5,0 L945.5,13.425 L980.5,0 Z M1053.5,0 L1090,14 L1017,14 L1053.5,0 Z M1126.5,0 L1163,14 L1090,14 L1126.5,0 Z M1199.5,0 L1236,14 L1163,14 L1199.5,0 Z M1272.5,0 L1309,14 L1236,14 L1272.5,0 Z M1413.5,0 L1450,14 L1309,14 L1345.5,0 L1379.5,13.041 L1413.5,0 Z M1486.5,0 L1523,14 L1450,14 L1486.5,0 Z" id="Combined-Shape"></path>
        </g>
    </g>
</svg>