<?xml version="1.0" encoding="UTF-8"?>
<svg width="199px" height="109px" viewBox="0 0 199 109" version="1.1" xmlns="http://www.w3.org/2000/svg" xmlns:xlink="http://www.w3.org/1999/xlink">
    <title>hello</title>
    <g id="Page-1" stroke="none" stroke-width="1" fill="none" fill-rule="evenodd">
        <g id="Group" transform="translate(-1.000000, 1.000000)">
            <g transform="translate(24.000000, 0.000000)" id="Palm-Tree">
                <g id="Small-Palm-Tree" transform="translate(36.292135, 57.473568) scale(-1, 1) rotate(3.000000) translate(-36.292135, -57.473568) translate(2.134831, 20.083700)">
                    <path d="M32.466227,19.2757312 C31.9754426,20.6034992 31.2555252,21.8947359 30.3064749,23.1494414 C30.9524027,23.976246 31.1932834,25.5033606 31.0291168,27.7307852 C32.312651,26.0952301 33.7796355,22.3918527 35.4300704,16.620653 C34.3992723,17.9957446 33.4113245,18.8807707 32.466227,19.2757312 Z" id="Path-14" stroke="#663A16" fill="#DAB26F"></path>
                    <path d="M30.7769627,22.7319443 C30.1122179,23.6295993 29.5966297,24.6394293 29.230198,25.7614342 C29.8338458,28.087877 30.5427686,29.3570484 31.3569664,29.5689487 C32.243512,25.8785832 31.6356333,23.7570497 30.7769627,22.7319443 Z" id="Path-21" stroke="#663A16" fill="#DAB26F"></path>
                    <path d="M29.2771918,25.3605699 C28.4505838,26.4379616 27.7536881,28.1472127 27.1865048,30.4883232 C29.7898029,30.4855255 31.2130239,30.0430714 31.4561677,29.1609609 C30.2354723,29.0330631 29.4411313,26.3268518 29.2771918,25.3605699 Z" id="Path-24" stroke="#663A16" fill="#DAB26F"></path>
                    <path d="M32.0842452,28.3464888 C31.9104917,29.8379297 30.962665,32.1169311 29.2407651,35.1834932 C27.717449,32.7868119 26.9574105,30.9984271 26.9606497,29.818339 C27.7166246,29.6745873 30.8951432,29.9663855 32.0842452,28.3464888 Z" id="Path-25" stroke="#663A16" fill="#DAB26F"></path>
                    <path d="M27.1503171,28.4880471 C25.830656,30.2881277 23.2193632,38.2030494 24.4354682,40.8801176 C25.7219034,38.7563141 27.4672466,36.9557099 29.6714978,35.4783051 C28.0472722,33.4701783 27.2068786,31.1400923 27.1503171,28.4880471 Z" id="Path-26" stroke="#663A16" fill="#DAB26F"></path>
                    <path d="M31.3360665,33.7397751 C29.745162,35.824624 27.5715059,41.0469643 27.3173011,44.8499073 C25.9581743,43.6229482 25.0206092,42.0047811 24.5046058,39.9954062 C25.9044789,37.7883512 28.1816325,35.7031408 31.3360665,33.7397751 Z" id="Path-27" stroke="#663A16" fill="#DAB26F"></path>
                    <path d="M24.0255528,36.0611609 C21.1067573,41.8500955 21.1231759,48.6278268 21.4283857,50.5897953 C25.7654879,45.8312163 26.1700336,45.7549532 27.6994548,44.9770923 C26.7284459,44.1346378 24.0123291,41.2826872 24.0255528,36.0611609 Z" id="Path-28" stroke="#663A16" fill="#DAB26F"></path>
                    <path d="M29.3258341,43.7101681 C28.2464772,45.4656209 27.2712552,49.5963111 26.4001681,56.1022386 C23.9681363,53.9966567 22.3815606,51.9723916 21.6404409,50.0294432 C24.6553405,46.3949278 26.1229024,45.2246475 29.3258341,43.7101681 Z" id="Path-29" stroke="#663A16" fill="#DAB26F"></path>
                    <path d="M20.6465458,46.8502912 C20.5970035,54.5189969 19.9721524,59.1857331 19.3732331,60.6211834 C19.7377784,61.8970568 19.8563829,62.1756656 21.0538304,64.370115 C22.7093247,61.6903975 22.5036408,60.2995841 26.2046938,56.3842662 C25.7152986,55.6515055 21.88661,52.2279603 20.6465458,46.8502912 Z" id="Path-30" stroke="#663A16" fill="#DAB26F"></path>
                    <path d="M27.3926414,54.9157221 C26.1986489,58.3765366 25.4648912,63.0769771 25.1913684,69.0170437 C22.9561638,67.2635468 21.4127679,65.5961627 20.5611807,64.0148915 C21.8327697,62.3288885 22.5810784,58.579624 27.3926414,54.9157221 Z" id="Path-31" stroke="#663A16" fill="#DAB26F"></path>
                    <path d="M17.912693,56.7765422 C16.7319593,62.5323003 18.3167726,69.9979715 16.4855522,72.9796256 C20.0097533,74.7799751 22.1825013,75.3723898 25.8788106,73.8661407 C25.8064261,73.4761987 25.8064261,71.9047735 25.8788106,69.1518651 C21.1531091,65.6063618 18.4977366,61.4812542 17.912693,56.7765422 Z" id="Path-32" stroke="#663A16" fill="#DAB26F"></path>
                    <path d="M38.0108853,16.0770537 C34.7836056,14.163457 32.2428198,12.8776804 30.3885277,12.219724 C30.8137269,12.7957279 31.0369832,13.259178 31.0582968,13.6100742 C25.8342148,11.69303 19.9921864,11.919947 13.5322114,14.2908252 C3.91214506,18.6871338 1.17887483,25.6179868 0.0108852534,33.5853627 C1.68373782,30.0960826 4.73703609,26.8909823 9.17078007,23.9700619 C8.83830049,24.9314983 8.75834146,25.9803635 8.93090299,27.1166574 C13.5631932,24.3733173 16.2634799,21.8766411 17.0317631,19.6266288 C17.3411627,20.5555745 17.3411627,21.4748603 17.0317631,22.3844862 C22.1143011,17.2956272 29.1073419,15.1931497 38.0108853,16.0770537 Z" id="Path-9" stroke="#006E4A" fill="#006E4A"></path>
                    <path d="M22.6344152,12.1520128 C26.0179512,11.8156835 30.8057068,12.9971164 31.0482762,13.2346346 C27.7072696,14.325928 26.0391084,15.2659521 24.2467173,17.5280863 C23.8722839,16.8963602 23.3296167,16.7977096 23.6054493,14.8633428 C22.5578165,15.77879 21.687231,17.2648593 20.9936929,19.3215509 C20.2077844,17.998153 19.7650743,16.9764859 19.6655624,16.2565493 C19.0919557,18.8966935 15.0952287,21.3377039 14.724308,22.6994886 C13.9461281,21.8635396 13.4711436,20.5230928 13.2993544,18.6781483 C12.758498,21.2572373 12.3233426,22.9739246 11.9938883,23.8282101 C11.0046937,23.3120497 10.1551242,22.5544224 9.44517986,21.555328 C9.25109525,22.8878732 7.01199552,25.3695155 2.72788065,29.000255 C3.57170688,27.2674838 3.57170688,26.4513083 2.72788065,26.5517286 C3.37631151,24.7447194 3.19878194,24.2180574 2.19529195,24.9717425 C7.61232356,13.0932189 19.2508793,12.4883421 22.6344152,12.1520128 Z" id="Path-11" fill-opacity="0.5" fill="#4A9E13"></path>
                    <path d="M37.4248854,16.4962432 C40.364023,18.3555622 40.9718845,24.5944083 40.9849131,24.7152988 C41.1894594,26.9412929 40.6805941,29.6023419 40.1469803,32.1227028 C39.9501052,31.7177947 39.7161544,31.4021177 39.445128,31.1756718 C38.0329252,38.7173206 36.6554046,43.6523716 35.3125663,45.9808246 C33.7763784,42.4791153 34.2163681,39.0848313 34.1516911,38.2951186 C34.0218927,38.7635497 33.3953792,40.4919448 32.7569604,41.4560089 C31.4101792,38.1945164 30.8198,34.7886805 30.9858229,31.238501 L30.3197026,33.2047999 C29.7103644,29.8288181 29.8156858,26.9632266 30.6356669,24.6080254 C31.2247206,22.6588667 32.9860403,19.0654119 37.4248854,16.4962432 Z" id="Path-2" stroke="#006E4A" fill="#006E4A"></path>
                    <path d="M14.0271192,17.1808208 C14.7997227,16.1287234 15.592298,17.1870632 16.2094661,16.1592866 C16.8266343,15.1315101 14.4830412,15.1041126 13.1135531,15.0999202 C11.7440649,15.0957278 9.94397432,14.9058122 9.9802496,15.8784952 C10.0165249,16.8511781 13.2545157,18.2329183 14.0271192,17.1808208 Z" id="Oval" fill-opacity="0.75" fill="#6FC556" transform="translate(13.145328, 16.320166) rotate(-24.000000) translate(-13.145328, -16.320166) "></path>
                    <path d="M7.09442573,21.2137531 C7.16067985,21.192921 7.75211287,21.2175092 8.00960204,20.4255232 C8.26709121,19.6335371 7.28228257,19.6140108 6.70682678,19.611702 C6.131371,19.6093933 5.37464689,19.4643338 5.39163094,20.2134489 C5.40861498,20.962564 7.02817162,21.2345852 7.09442573,21.2137531 Z" id="Oval" fill-opacity="0.75" fill="#6FC556" transform="translate(6.721519, 20.406901) rotate(-52.000000) translate(-6.721519, -20.406901) "></path>
                    <path d="M33.0480263,25.9637376 C33.7196538,25.4181938 34.0591961,24.4393781 34.0616233,23.1127909 C34.0640184,21.7862038 33.7957852,20.6560575 33.0576708,20.6573879 C32.3195565,20.6587207 31.9506622,21.9396262 31.9479866,23.4049339 C31.9453356,24.8702416 32.3763988,26.5092814 33.0480263,25.9637376 Z" id="Oval" fill-opacity="0.35" fill="#1EA61C" transform="translate(33.004805, 23.364216) rotate(13.000000) translate(-33.004805, -23.364216) "></path>
                    <path d="M31.9025438,31.511654 C32.3870039,31.2455865 32.317256,30.6901971 32.316334,30.0401054 C32.3154119,29.3900138 32.1287477,28.6487444 31.5951273,28.6479929 C31.0615069,28.6472424 30.9420319,29.5014483 30.9430439,30.2195197 C30.9440688,30.9375911 31.4180837,31.7777216 31.9025438,31.511654 Z" id="Oval" fill-opacity="0.35" fill="#1EA61C" transform="translate(31.631679, 30.105014) rotate(-10.000000) translate(-31.631679, -30.105014) "></path>
                    <path d="M29.450078,0.125740981 C31.9649867,1.16400452 33.8273236,3.16739759 35.0370886,6.13592021 C34.3046196,5.80569624 33.6189533,5.61739555 32.9800896,5.57101813 C34.7958588,8.08531337 36.0785016,11.6756846 36.8280179,16.3421317 C38.8861233,12.0450316 39.3678782,8.38860942 38.2732827,5.37286518 C36.0398557,0.301413873 30.8692092,-0.00382515559 29.450078,0.125740981 Z" id="Path" stroke="#006E4A" fill="#006E4A"></path>
                    <path d="M37.6114013,16.3418037 C41.6744505,20.3005629 44.1331401,25.0800415 44.9874701,30.6802394 C45.3621235,29.5542396 45.6821416,28.8435997 45.9475245,28.5483196 C46.9020939,32.5346008 48.0424694,35.8159288 49.368651,38.3923036 C49.5548038,37.5861637 50.1359379,37.1269648 51.1120534,37.0147071 C51.7416458,39.57937 52.3466344,42.3741584 52.9270193,45.3990724 C56.1468918,42.2087735 56.4696894,32.6287452 53.4821432,26.9385283 C50.3570599,20.986352 45.0668126,17.4541105 37.6114013,16.3418037 Z" id="Path-3" stroke="#006E4A" fill="#006E4A"></path>
                    <path d="M57.9512576,25.1623004 C59.1668365,27.4582881 61.4427577,28.5345729 66.8060251,32.386855 C66.5597733,27.4356182 63.2326681,22.7659156 56.8247095,18.3777471 C50.2118307,14.9644753 44.0361465,14.1101295 38.2976568,15.8147099 C40.5425386,16.4304472 44.9234155,17.5485097 47.4004985,19.1809151 C50.0433531,20.9225646 50.1414988,20.9345597 51.1298475,22.0096319 C51.0672996,21.3141923 51.0120454,20.8945408 50.9640847,20.7506774 C54.0701468,23.5413707 56.1079201,25.545111 57.0774045,26.7618984 C57.4505742,25.4362356 57.5878734,25.5632498 57.9512576,25.1623004 Z" id="Path-4" stroke="#006E4A" fill="#006E4A" transform="translate(52.551841, 23.674980) rotate(-1.000000) translate(-52.551841, -23.674980) "></path>
                    <path d="M36.7196939,16.0568848 C37.221828,14.1282438 38.8128581,7.9441679 45.0509464,5.74216274 C47.9488313,4.71922792 52.1457885,5.82368588 57.6418177,9.05553661 C54.4514658,9.16861031 51.763231,9.06341531 49.5771135,8.73995159 C49.8342627,9.37012638 50.1211229,9.80588849 50.4376942,10.0472379 C47.5819276,10.1909536 45.536739,10.1911261 44.3021284,10.0477555 C45.2080286,10.9307559 45.0863259,10.7313196 45.5721172,11.3625408 C42.081848,10.7548119 40.9655575,10.785328 36.7196939,16.0568848 Z" id="Path-5" stroke="#006E4A" fill="#006E4A" transform="translate(47.180756, 10.715073) rotate(-6.000000) translate(-47.180756, -10.715073) "></path>
                    <path d="M37.6959256,16.1193965 C42.9925205,11.5491264 47.1540536,10.2189739 52.7326637,11.1392912 C59.1184424,12.1927691 64.2110653,15.519827 68.0105323,21.1204649 C61.6156078,18.7832339 58.1608587,17.3402213 57.646285,16.7914272 C57.530571,17.767115 57.6594603,18.2221166 57.6661418,18.6283621 C55.0728736,16.1313487 46.3046234,13.6333561 37.6959256,16.1193965 Z" id="Path-6" stroke="#006E4A" fill="#006E4A"></path>
                    <path d="M6.58279499,10.1854102 C10.8246109,4.95271947 17.083833,2.79232945 25.3604612,3.70424017 C35.231263,5.48404836 36.4239576,13.5834224 37.324368,15.8933078 C33.4043813,12.7064028 29.9391603,11.2459014 26.9287053,11.5118036 C27.0008422,11.2248005 27.1315261,10.9244014 27.3207569,10.6106063 C24.9874858,10.668674 22.6203877,10.526942 20.2194626,10.1854102 C20.959966,9.82982314 21.5882693,9.44978694 22.1043724,9.04530161 C15.6544013,6.75752241 10.4805422,7.13755861 6.58279499,10.1854102 Z" id="Path-7" stroke="#006E4A" fill="#006E4A"></path>
                    <path d="M38.0226408,15.933397 C28.8931238,15.027639 23.5944873,17.403184 20.051702,21.2182755 C13.5673345,29.7386047 11.4506886,38.1682638 13.7017642,46.5072529 C13.7282406,40.7349419 15.5351424,36.4713768 19.1224696,33.7165577 C18.9462775,35.3640221 19.4109696,35.4533295 19.5178597,36.1804818 C21.2624535,34.664128 22.9874395,31.8140082 24.6928176,27.6301224 C24.7467346,27.9698001 24.893671,28.5557871 25.1336271,29.3880834 C26.2576027,28.2742284 27.4101289,26.3084439 28.5912055,23.4907299 C28.7592479,23.8001738 28.9751546,24.4165528 29.2389255,25.339867 C32.184601,21.802038 31.4572995,19.5739054 38.0226408,15.933397 Z" id="Path-8" stroke="#006E4A" fill="#006E4A"></path>
                    <path d="M37.4748511,15.5930283 C39.1416858,17.3900262 40.0912095,20.0650231 40.3234222,23.6180189 C39.127584,23.2655498 37.8808977,22.5812507 36.5833634,21.5651215 C39.7479272,24.0247437 40.8624621,26.4177446 39.9269681,28.744124 C38.668332,26.6452273 37.2644944,25.2241146 35.7154553,24.4807859 C37.4153659,26.2226531 38.5050255,28.4715644 38.984434,31.2275197 C37.4083405,30.8860383 36.4471787,30.2356711 36.1009489,29.2764181 C33.1203899,29.6941988 36.584219,35.8761184 32.26719,36.1040415 C31.6119419,31.2295784 36.8984932,17.5163714 37.4748511,15.5930283 Z" id="Path-10" fill-opacity="0.5" fill="#077902"></path>
                    <path d="M37.5797274,15.5674435 C39.2094054,17.8870318 39.8491181,21.6261373 39.4988655,26.7847601 C38.6740948,26.3189493 37.8142542,25.4146035 36.9193436,24.0717227 C37.1812289,26.1118256 37.664062,27.8485146 38.3678426,29.2817897 C37.7761386,29.0449907 37.0937732,28.5927151 36.3207466,27.9249629 C37.4931764,30.2269537 37.8790022,32.3209356 37.478224,34.2069086 L35.837992,32.8183588 L34.4342568,40.7788973 C33.3860706,28.1554629 34.4345608,19.751645 37.5797274,15.5674435 Z" id="Path-10" fill="#319637"></path>
                    <path d="M37.671866,15.5052812 C39.0141804,15.6724549 43.7274447,18.5199943 48.1305001,22.9462245 C52.0644735,27.6074088 53.4739325,31.8005921 52.3588773,35.5257746 C52.7509663,35.3722088 53.1863434,34.9752588 53.6650086,34.3349246 C54.052245,36.2365122 53.9921809,39.741231 53.1907925,41.1440477 C52.6619516,40.1800582 52.0260113,39.3913466 51.2829715,38.7779131 C51.0880867,37.9203105 50.9728883,37.4061768 50.9373763,37.2355119 C49.8834049,37.4467022 49.6426814,37.9480418 49.4363325,38.9653226 C48.2425681,36.776574 46.976368,33.4307217 45.6377322,28.9277656 C45.4136166,29.8142644 45.1695262,30.6963638 44.905461,31.5740638 C43.9573181,22.5543593 38.4769533,16.7964191 37.671866,15.5052812 Z" id="Path-12" fill-opacity="0.75" fill="#2D9105"></path>
                    <path d="M28.3206387,17.6147296 C26.3738842,20.0591259 24.348773,22.4546542 22.2453051,24.8013145 C19.9175764,27.7503932 17.8153468,30.4826182 15.9386162,32.9979895 C17.0814858,28.30834 18.6229007,24.7214168 20.562861,22.2372198 C22.8642298,19.2902246 25.4501557,17.7493945 28.3206387,17.6147296 Z" id="Path-16" fill="#047325"></path>
                    <path d="M49.4037709,25.0979008 C49.458185,26.0204464 47.9473938,26.3307438 48.1968119,27.7151694 C49.4967868,27.493023 49.384576,28.0429906 50.3698101,27.5505296 C51.0669456,30.546373 48.80665,35.1690063 48.2601401,35.9709812 C47.7842188,34.9312004 46.2110131,30.9188976 45.8498681,28.708672 C45.5374151,29.207907 45.4935477,29.3638864 44.9741223,30.7901981 C44.2971692,26.9675124 43.6752205,25.6818831 42.8166369,23.4776203 C43.0183381,22.0135322 44.0761494,21.3393456 45.9900709,21.4550603 C47.5516492,22.7714572 48.6895492,23.9857374 49.4037709,25.0979008 Z" id="Path-13" stroke="#5CB54C" fill="#5CB54C"></path>
                    <path d="M37.3372362,15.6993645 C32.3598131,18.3786675 29.6735313,20.2022637 29.2783908,21.170153 C29.1110627,20.2368679 28.2132363,18.6950239 28.0823498,18.1818679 C27.4861701,19.0021655 27.3656839,21.1595168 27.7208914,24.6539218 C27.0337894,24.0412573 26.4673851,23.3555105 26.0216784,22.5966816 C25.8061767,23.4739087 25.7935444,24.4446857 25.9837814,25.5090125 C25.5105709,25.4645011 25.0263509,25.0562637 24.5311216,24.2843001 C24.8068234,26.5717017 24.3363861,28.6174325 23.1198099,30.4214925 L22.6173248,28.4555278 C22.4292989,29.5306229 22.0820397,30.4973436 21.5755471,31.3556896 C20.9410395,30.419607 20.9072798,30.0665663 20.8118249,29.1104023 C20.4718629,31.6449244 19.0896601,34.2435018 17.0593639,36.6298841 C16.8955011,36.1498367 16.8688493,35.1527206 16.9794087,33.6385356 L15.134989,36.4183503 C15.9872158,30.7704229 17.7324482,25.7372543 20.3706862,21.3188445 C22.4811616,17.3590938 28.1366783,15.4859338 37.3372362,15.6993645 Z" id="Path-15" fill-opacity="0.2" fill="#19871C"></path>
                    <path d="M42.3110105,5.68609057 C39.5760395,7.01063978 38.0836856,7.81539301 37.8339488,8.10035028 C37.7272819,7.82477548 37.1572969,7.36859642 37.0740078,7.2170177 C36.6967755,7.45813856 36.6218905,8.09440318 36.8493527,9.12581155 C36.4135314,8.94405979 36.0541445,8.7409253 35.7711921,8.51640806 C35.6352279,8.77488286 35.6278823,9.06125384 35.7491552,9.37552099 C35.4492592,9.36169463 35.1421397,9.24054903 34.8277967,9.01208419 C35.0040578,9.68729695 34.7073387,10.2901183 33.9376393,10.8205484 L33.6178876,10.2398298 C33.4994688,10.5567182 33.2800728,10.841401 32.9596996,11.0938783 C32.5569868,10.816792 32.5353541,10.7125917 32.4742165,10.4303729 C32.2605094,11.1775846 31.3863948,11.9421624 30.1014499,12.6431886 C29.9972867,12.5013288 29.9797207,12.2071298 30.0487521,11.7605915 L28.8818612,12.5779574 C28.8557195,10.7545229 29.6770525,9.19300422 31.3458603,7.89340127 C32.0930519,7.24116506 35.7965405,5.88758743 37.9110222,5.77484809 C39.0193887,5.71575252 40.4860514,5.68616668 42.3110105,5.68609057 Z" id="Path-15" fill-opacity="0.3" fill="#19871C" transform="translate(35.596133, 9.164640) rotate(107.000000) translate(-35.596133, -9.164640) "></path>
                    <path d="M23.5607758,18.6164768 C23.1596483,21.701576 22.2179525,24.0441865 20.7356886,25.6443083 C19.0953934,27.6552022 17.0483251,29.0159691 14.5944837,29.726609 C16.3689736,26.1159029 17.9397405,23.4635978 19.3067845,21.7696936 C20.9285046,19.7602204 22.3465017,18.7091481 23.5607758,18.6164768 Z" id="Path-16" fill-opacity="0.5" fill="#5CB54C"></path>
                    <path d="M37.6085908,15.5662321 C41.7104795,14.7165886 47.2518794,14.6145806 54.2327904,15.2602083 C53.7424486,14.7132398 53.4621602,13.8476619 53.3919253,12.6634746 C54.4695525,13.9750303 55.9186398,15.0785681 57.7391873,15.974088 C58.0000354,15.6625513 58.1164314,14.9170257 58.0883751,13.7375113 C58.6974641,14.7807771 60.2463194,16.2715705 62.734941,18.2098914 C62.4172287,17.4866446 62.1544641,16.7361501 61.9466471,15.958408 C62.412683,16.4107095 63.4086118,16.9403695 64.9344335,17.547388 C62.608137,14.3221716 59.1369349,12.1958021 54.5208272,11.1682794 C44.0505887,8.64176339 40.0606721,14.2010538 37.6085908,15.5662321 Z" id="Path-17" fill="#047325"></path>
                    <path d="M38.7779962,15.5316623 C44.2666853,16.4575301 48.2817896,17.7578502 50.8233092,19.4326226 C52.9557133,20.8378023 54.7614823,22.4624287 56.2406162,24.3065018 C56.6193118,23.9583403 56.8863954,23.2615685 57.0418668,22.2161862 C58.0024886,22.5920584 59.1729587,23.8513162 60.5532771,25.9939599 C60.1221479,23.7189225 58.8409301,21.5755524 56.7096237,19.5638495 C55.0336148,18.003824 53.3404131,16.6384013 48.8452941,15.2549426 C46.9948154,14.6806477 43.6390494,14.7728876 38.7779962,15.5316623 Z" id="Path-18" stroke="#08753B" fill="#08753B"></path>
                    <path d="M48.6368131,15.7537345 C48.8568418,16.5919108 48.9668561,17.2514755 48.9668561,17.7324285 C48.9668561,18.2046584 48.7919353,18.5588719 48.4420937,18.7950691 L49.0991043,19.1722367 C49.7260545,18.7166985 50.0672659,18.2380962 50.1227387,17.7364296 C50.1878016,17.1480341 50.1362271,16.6492621 49.968015,16.2401138 L48.6368131,15.7537345 Z" id="Path-19" stroke="#006E4A" fill="#006E4A"></path>
                    <path d="M36.5613258,15.9759446 C37.6361579,14.1180001 42.7451404,7.55526523 46.7380149,9.37534767 C47.1538582,8.46454023 47.9393289,7.82301298 49.094427,7.45076594 C50.7814688,8.27698706 52.1546028,8.46758851 53.2138291,8.0225703 C52.3530516,7.36734825 52.291031,6.94840259 52.1972978,6.54240864 C43.4949144,2.65286885 37.6492828,10.5321079 36.5613258,15.9759446 Z" id="Path-20" fill-opacity="0.75" fill="#309446" transform="translate(44.887577, 10.739023) rotate(-6.000000) translate(-44.887577, -10.739023) "></path>
                    <path d="M29.7109305,9.74699724 C30.3769288,9.20347193 30.8689492,9.46187932 30.8634524,8.13054059 C30.8579555,6.79920186 30.5839434,5.66340646 29.8484533,5.66036783 C29.1129632,5.6573348 27.9408397,8.12767821 27.9468879,9.59823436 C27.9529831,11.0687905 29.0449323,10.2905225 29.7109305,9.74699724 Z" id="Oval" fill-opacity="0.35" fill="#1EA61C" transform="translate(29.405193, 8.052835) rotate(-44.000000) translate(-29.405193, -8.052835) "></path>
                    <path d="M33.0434417,11.4535016 C33.4770001,11.1083083 34.9476962,14.4903008 34.944211,13.6446603 C34.9407132,12.7990198 34.2410958,9.69387013 33.7623382,9.69188542 C33.2835806,9.68991786 31.4661319,10.0289593 31.4699823,10.963028 C31.4738451,11.8970967 32.6098834,11.7986948 33.0434417,11.4535016 Z" id="Oval" fill-opacity="0.5" fill="#1EA61C" transform="translate(33.207097, 11.736382) rotate(-44.000000) translate(-33.207097, -11.736382) "></path>
                    <path d="M54.1638141,17.167571 C54.3389775,17.6718127 54.4810751,18.5094399 54.5901069,19.6804526 C54.6169934,20.0563206 54.5610651,21.0204839 54.4223221,22.5729424 L55.5830547,24.0045754 C55.5405494,23.5634008 55.6069887,22.8061821 55.7823727,21.7329192 C55.9577568,20.6596562 55.8748208,19.3715536 55.5335649,17.8686112 L54.1638141,17.167571 Z" id="Path-19" stroke="#006E4A" fill="#006E4A"></path>
                    <path d="M45.8514645,13.4840052 C46.2239238,12.9889825 45.8499925,12.6738614 46.1475256,12.1902772 C46.4450587,11.706693 45.3153655,11.693719 44.6552243,11.6916981 C43.995083,11.6896772 43.1273829,11.6002517 43.1448344,12.0579354 C43.1622859,12.5156191 45.4790052,13.9790278 45.8514645,13.4840052 Z" id="Oval" fill-opacity="0.2" fill="#6FC556" transform="translate(44.670515, 12.634132) rotate(-24.000000) translate(-44.670515, -12.634132) "></path>
                    <path d="M50.6898169,12.9800856 C51.0622761,12.485063 53.7785505,14.201954 54.0760836,13.7183698 C54.3736167,13.2347856 49.644862,10.1780419 48.9847207,10.1760167 C48.3245795,10.1740002 47.5030867,10.8816948 47.5205382,11.3393785 C47.5379898,11.7970622 50.3173576,13.4751082 50.6898169,12.9800856 Z" id="Oval" fill-opacity="0.5" fill="#6FC556" transform="translate(50.804902, 11.990602) rotate(-24.000000) translate(-50.804902, -11.990602) "></path>
                    <path d="M60.8828025,16.8709051 C61.2109241,16.5474416 58.2830324,12.1358836 58.1308628,13.4609141 C57.9786932,14.7859445 56.0614831,11.6077279 54.9213397,12.4723198 C54.3713857,12.8893602 55.662668,14.0027401 57.1837071,15.0073606 C58.816027,16.0854802 60.712952,17.0383443 60.8828025,16.8709051 Z" id="Oval" fill="#6FC556" opacity="0.3" transform="translate(57.850300, 14.605492) rotate(-24.000000) translate(-57.850300, -14.605492) "></path>
                    <path d="M37.5385824,4.28762592 C35.962422,6.03829843 36.8316692,6.89855443 33.3016069,6.49735484 C33.5016013,6.74961721 35.9363607,7.2804426 34.3796083,7.97472881 C36.0924489,7.70722261 35.1004551,9.71769235 35.3855781,10.2303903 C35.6080478,7.69676834 38.4353016,6.97004316 36.2132051,12.4065687 C36.6053826,12.4036808 37.9535772,8.64164945 38.125343,11.5691512 C38.8333598,9.55310092 38.1436521,5.06633274 37.5385824,4.28762592 Z" id="Path-22" fill="#008327"></path>
                    <path d="M24.2935772,3.41923891 C25.1897199,4.35250558 26.3273642,4.94644297 27.7065101,5.20105106 C26.8448134,5.84268699 26.0424978,6.29233783 25.2995633,6.55000357 C28.4163991,6.41240936 30.5351709,7.41631791 31.6558786,9.56172924 C24.0944607,7.85273854 24.8502553,9.98150162 21.8119686,10.2354127 C25.8687344,3.9655902 11.1805234,5.91546542 4.75700224,11.8134934 C9.33588691,5.35615369 15.8480786,2.55806885 24.2935772,3.41923891 Z" id="Path-23" fill-opacity="0.5" fill="#5CB54C"></path>
                    <path d="M34.2089593,3.06936165 C34.5243051,3.07064808 34.618797,2.62170913 34.7760529,2.1211466 C34.9333088,1.62058407 34.421409,1.18188439 34.2011783,1.16826574 C33.9809476,1.15464709 33.3785584,1.26877796 33.3807014,1.79375033 C33.3828558,2.31872271 33.8936135,3.06806969 34.2089593,3.06936165 Z" id="Oval" fill="#5CB54C" transform="translate(34.093135, 2.118289) rotate(-41.000000) translate(-34.093135, -2.118289) "></path>
                    <path d="M62.1626574,28.9805797 C62.5840425,28.9823001 62.708722,27.9947659 62.9170876,26.8934918 C63.1254532,25.7922178 62.4398786,24.829338 62.1455475,24.8001678 C61.8512163,24.7709976 61.0466773,25.0240919 61.0514021,26.1784802 C61.0561269,27.3328684 61.7412724,28.9788547 62.1626574,28.9805797 Z" id="Oval" fill="#5CB54C" transform="translate(62.003619, 26.889283) rotate(-41.000000) translate(-62.003619, -26.889283) "></path>
                    <path d="M52.1627275,21.8554704 C52.5841125,21.8571919 52.0706337,20.0332713 51.7741612,17.8080908 C51.4776887,15.5829102 48.8813572,14.6423981 48.2883031,15.053939 C47.695249,15.4654799 50.4028876,17.4130333 50.4076124,18.5674215 C50.4123372,19.7218098 51.7413424,21.8537465 52.1627275,21.8554704 Z" id="Oval" fill="#5CB54C" transform="translate(50.262829, 18.407611) rotate(-41.000000) translate(-50.262829, -18.407611) "></path>
                </g>
                <g id="BIg-Palm-Tree" transform="translate(37.573034, 0.000000)">
                    <path d="M32.115775,29.571657 C31.5795647,31.0415648 30.7930134,32.4710306 29.7561211,33.8600544 C30.4618346,34.7753698 30.7250106,36.4659646 30.5456491,38.9318388 C31.9479843,37.1211947 33.5507497,33.0213646 35.3539452,26.6323483 C34.2277388,28.1546457 33.1483487,29.1344153 32.115775,29.571657 Z" id="Path-14" stroke="#663A16" fill="#DAB26F"></path>
                    <path d="M29.4415754,33.4558078 C28.6730907,34.4492384 28.0770399,35.5668124 27.653423,36.8085298 C28.3512758,39.3831928 29.170833,40.7877788 30.1120944,41.0222878 C31.1369941,36.938178 30.43425,34.5902871 29.4415754,33.4558078 Z" id="Path-21" stroke="#663A16" fill="#DAB26F"></path>
                    <path d="M27.5400461,36.1800744 C26.4924486,37.5636545 25.6092413,39.7586646 24.8904244,42.7651049 C28.1897013,42.761512 29.9934133,42.1933151 30.3015604,41.060514 C28.7545182,40.8962684 27.747814,37.4209678 27.5400461,36.1800744 Z" id="Path-24" stroke="#663A16" fill="#DAB26F"></path>
                    <path d="M30.4679989,41.1951403 C30.2776426,42.8107488 29.2392478,45.2794849 27.3528145,48.6013488 C25.6839403,46.0051355 24.8512775,44.0678616 24.8548262,42.7895271 C25.6830371,42.6338076 29.1652741,42.949899 30.4679989,41.1951403 Z" id="Path-25" stroke="#663A16" fill="#DAB26F"></path>
                    <path d="M24.6304282,40.9232129 C23.146302,42.9173319 20.2095723,51.6854365 21.5772365,54.6510772 C23.023996,52.2983399 24.9868556,50.303641 27.4658155,48.6669804 C25.6391679,46.4423892 24.6940388,43.8611334 24.6304282,40.9232129 Z" id="Path-26" stroke="#663A16" fill="#DAB26F"></path>
                    <path d="M28.9478841,47.5458399 C27.2314142,49.9138418 24.8861978,55.8454524 24.6119295,60.1648906 C23.1455309,58.7712925 22.1339665,56.9333547 21.5772365,54.6510772 C23.0875974,52.1442718 25.5444799,49.7758594 28.9478841,47.5458399 Z" id="Path-27" stroke="#663A16" fill="#DAB26F"></path>
                    <path d="M21.0147352,50.2826691 C17.9875326,56.9039225 18.0045611,64.6561392 18.3211067,66.9001947 C22.8192933,61.457439 23.2388642,61.3702109 24.8250897,60.480511 C23.8180165,59.5169306 21.0010204,56.2549335 21.0147352,50.2826691 Z" id="Path-28" stroke="#663A16" fill="#DAB26F"></path>
                    <path d="M26.1463493,59.7583481 C25.0521087,61.7530027 24.063439,66.4465494 23.1803402,73.8389883 C20.7147723,71.4464954 19.1063188,69.1463996 18.3549795,66.938701 C21.4114526,62.8089389 22.8992512,61.4791937 26.1463493,59.7583481 Z" id="Path-29" stroke="#663A16" fill="#DAB26F"></path>
                    <path d="M17.0786517,63.5480153 C17.0232843,72.0533919 16.3249653,77.2292782 15.6556271,78.821339 C16.0630344,80.2364127 16.1955841,80.5454182 17.5338234,82.9792865 C19.3839652,80.0072065 19.1540976,78.4646525 23.2903079,74.1221658 C22.7433713,73.3094594 18.4645184,69.5123987 17.0786517,63.5480153 Z" id="Path-30" stroke="#663A16" fill="#DAB26F"></path>
                    <path d="M24.9982367,72.5703284 C23.6936176,76.5293132 22.8918754,81.9063632 22.5930101,88.7014782 C20.1507079,86.6955726 18.4643123,84.7881753 17.5338234,82.9792865 C18.9232284,81.0505902 19.7408699,76.7616343 24.9982367,72.5703284 Z" id="Path-31" stroke="#663A16" fill="#DAB26F"></path>
                    <path d="M15.0148499,75.8598364 C13.7423754,82.2630129 15.4503259,90.5684367 13.4768228,93.8854728 C17.2748482,95.8883289 19.6164148,96.5473795 23.5999209,94.8717047 C23.4782946,94.4540747 23.4782946,92.7058927 23.5999209,89.6271587 C18.5070408,85.6828506 15.6453504,81.0937432 15.0148499,75.8598364 Z" id="Path-32" stroke="#663A16" fill="#DAB26F"></path>
                    <path d="M42.4831461,19.2953493 C38.87512,17.14915 36.0345785,15.707084 33.9615216,14.9691512 C34.4368847,15.6151699 34.6864803,16.1349536 34.7103084,16.528502 C28.8699021,14.3784362 22.3386456,14.6329356 15.1165388,17.2920001 C4.3615208,22.2226915 1.3057861,29.9960076 0,38.9318388 C1.87021158,35.0184276 5.28373043,31.423739 10.2405566,28.1477731 C9.86885186,29.2260747 9.77945946,30.4024322 9.97237937,31.6768455 C15.1511757,28.6000453 18.1700356,25.7998916 19.028959,23.2763845 C19.3748608,24.318246 19.3748608,25.3492734 19.028959,26.3694666 C24.7111223,20.6620437 32.5291846,18.3040046 42.4831461,19.2953493 Z" id="Path-9" stroke="#006E4A" fill="#006E4A"></path>
                    <path d="M24.8493449,14.8454505 C28.5958474,14.3374711 34.2307718,16.0252424 34.5001091,16.2902466 C30.7904174,17.5078259 28.6754669,18.6486844 26.6852828,21.1725957 C25.9978659,20.4888795 25.6437247,20.0193197 25.9499959,17.8611056 C24.7867552,18.8824894 23.8200992,20.5405287 23.0500281,22.8352232 C22.1773935,21.3586801 21.6858296,20.2187842 21.5753364,19.4155357 C20.9384314,22.3612008 16.5006595,25.084688 16.0888071,26.6040603 C15.2247538,25.6713742 14.6973541,24.1758092 14.5066077,22.1173652 C13.9060669,24.9949098 13.4228915,26.9102544 13.0570814,27.8633989 C11.9587276,27.2875078 11.0154069,26.4422068 10.2271191,25.327496 C10.011617,26.814245 7.52542915,29.5830662 2.76855568,33.6339596 C3.70549942,31.7006698 3.70549942,30.7900455 2.76855568,30.9020865 C3.55348015,29.3942951 3.38882907,29.0608507 2.27460242,29.9017532 C8.28941173,16.6486314 21.1028423,15.3534299 24.8493449,14.8454505 Z" id="Path-11" fill-opacity="0.5" fill="#4A9E13"></path>
                    <path d="M41.9401266,19.8350457 C45.2405652,21.9368846 45.9231495,28.9894932 45.9377797,29.1261521 C46.1674703,31.6424933 45.5960515,34.6506357 44.9968419,37.4997392 C44.7757654,37.042017 44.5130556,36.6851647 44.2087126,36.4291824 C42.6229113,44.9545246 41.0760556,50.5332779 39.5681455,53.1654422 C37.8431179,49.2069882 38.3371944,45.3699715 38.2645668,44.4772527 C38.1188126,45.0067836 37.4152834,46.9606215 36.6983854,48.0504331 C35.1860478,44.3635286 34.5230948,40.5134531 34.7095264,36.5002068 L33.9615216,38.7229795 C33.277279,34.9066522 33.3955474,31.6672879 34.3163266,29.0048865 C34.9777912,26.8014898 36.9556255,22.7393235 41.9401266,19.8350457 Z" id="Path-2" stroke="#006E4A" fill="#006E4A"></path>
                    <path d="M15.6791734,19.9903771 C16.5479866,18.8025929 17.4311674,19.9914829 18.1258985,18.8316769 C18.8206295,17.6718709 16.1973803,17.6498868 14.6644292,17.650349 C13.1314781,17.6508112 11.1172256,17.4437439 11.1541495,18.5390308 C11.1910734,19.6343177 14.8103603,21.1781614 15.6791734,19.9903771 Z" id="Oval" fill-opacity="0.75" fill="#6FC556" transform="translate(14.697160, 19.026970) rotate(-24.000000) translate(-14.697160, -19.026970) "></path>
                    <path d="M7.92761087,25.3643499 C8.00218427,25.3406583 8.66684084,25.3653123 8.96017586,24.4757894 C9.25351089,23.5862664 8.14667021,23.5692336 7.49986216,23.5694881 C6.8530541,23.5697426 6.00320367,23.4107912 6.01859182,24.2508759 C6.03397997,25.0909605 7.85303747,25.3880416 7.92761087,25.3643499 Z" id="Oval" fill-opacity="0.75" fill="#6FC556" transform="translate(7.513525, 24.461658) rotate(-52.000000) translate(-7.513525, -24.461658) "></path>
                    <path d="M36.9432216,30.7283853 C37.693019,30.1148617 38.0705106,29.0121439 38.070245,27.5166106 C38.069979,26.0210773 37.7675167,24.7463987 36.9421584,24.7462519 C36.1168001,24.7461051 35.7071615,26.1893206 35.7074549,27.8412411 C35.7077487,29.4931617 36.1934242,31.3419089 36.9432216,30.7283853 Z" id="Oval" fill-opacity="0.35" fill="#1EA61C" transform="translate(36.888850, 27.797517) rotate(13.000000) translate(-36.888850, -27.797517) "></path>
                    <path d="M35.6546899,36.9861931 C36.1967769,36.6853403 36.1197666,36.0592234 36.1198682,35.3262035 C36.1199699,34.5931836 35.9125717,33.7576783 35.3159885,33.7577611 C34.7194053,33.7578439 34.584345,34.7212259 34.5842327,35.5308973 C34.5841204,36.3405687 35.1126028,37.2870458 35.6546899,36.9861931 Z" id="Oval" fill-opacity="0.35" fill="#1EA61C" transform="translate(35.353909, 35.400544) rotate(-10.000000) translate(-35.353909, -35.400544) "></path>
                    <path d="M33.9615216,0.0253405934 C36.7050584,1.24937246 38.7366985,3.61121689 40.0564422,7.1108739 C39.2573852,6.72156556 38.5093855,6.4995737 37.8124433,6.44489834 C39.7932825,9.40905665 41.1925291,13.6418247 42.0101832,19.1432025 C44.2553891,14.0772561 44.78094,9.76661906 43.5868358,6.21129144 C41.1503699,0.232445254 35.5096648,-0.127407792 33.9615216,0.0253405934 Z" id="Path" stroke="#006E4A" fill="#006E4A"></path>
                    <path d="M42.5207219,19.8346482 C46.9174243,24.2984416 49.5780189,29.6876566 50.5025055,36.0022934 C50.907925,34.7326455 51.2542227,33.9313465 51.5413986,33.5983964 C52.5743562,38.0932229 53.8083781,41.7931626 55.2434643,44.6982155 C55.4449037,43.7892331 56.07376,43.2714525 57.1300331,43.1448736 C57.8113269,46.0367204 58.4659965,49.1880508 59.094042,52.5988648 C62.5783269,49.0015671 62.9276324,38.1993776 59.6947521,31.7832378 C56.3130403,25.0717194 50.5883636,21.0888562 42.5207219,19.8346482 Z" id="Path-3" stroke="#006E4A" fill="#006E4A"></path>
                    <path d="M64.771108,29.8246994 C66.1293404,32.4140385 68.6729237,33.6275337 74.6667097,37.9714195 C74.3923566,32.3871559 70.6745142,27.1209714 63.5131824,22.1728659 C56.1226401,18.3243448 49.2202909,17.3618592 42.8061349,19.2854091 C45.3151076,19.9794762 50.2113716,21.2397167 52.9796924,23.080403 C55.9332753,25.0442719 56.0429696,25.0577833 57.147446,26.2701398 C57.0776605,25.4857916 57.015978,25.0124928 56.9623984,24.8502434 C60.4335172,27.9972057 62.71076,30.2567843 63.7941268,31.6289791 C64.2114505,30.1337493 64.3648859,30.2769792 64.771108,29.8246994 Z" id="Path-4" stroke="#006E4A" fill="#006E4A" transform="translate(58.736422, 28.147645) rotate(-1.000000) translate(-58.736422, -28.147645) "></path>
                    <path d="M42.3193902,19.2953493 C42.8778779,17.0891759 44.6474592,10.0152062 51.5876763,7.49687793 C54.811733,6.32699618 59.4813216,7.590819 65.5964422,11.2883464 C62.0469048,11.4173864 59.0559966,11.2967918 56.6237176,10.9265623 C56.9098779,11.6474603 57.229076,12.1459674 57.5813121,12.4220838 C54.4040334,12.5862082 52.1285806,12.5862082 50.754954,12.4220838 C51.7629308,13.432258 51.627507,13.204106 52.1680519,13.926223 C48.2847625,13.2306895 47.0427936,13.2654899 42.3193902,19.2953493 Z" id="Path-5" stroke="#006E4A" fill="#006E4A"></path>
                    <path d="M42.4831461,19.5622741 C48.4106784,14.41952 53.067939,12.9227491 59.3110806,13.9583478 C66.4575419,15.1437871 72.1568049,18.887601 76.4088696,25.1897895 C69.2521731,22.5597908 65.3858896,20.9360227 64.8100191,20.3184851 C64.6805211,21.4163901 64.8247639,21.9283865 64.8322414,22.3855193 C61.9300595,19.5757235 52.1173235,16.7648258 42.4831461,19.5622741 Z" id="Path-6" stroke="#006E4A" fill="#006E4A"></path>
                    <path d="M7.59503507,13.1852278 C12.3864074,7.46978333 19.4565547,5.11008164 28.8054771,6.10612274 C39.955109,8.05013117 41.3023254,16.8967313 42.3193902,19.4197204 C37.8915422,15.9388003 33.9773781,14.343557 30.5768979,14.6339906 C30.6583807,14.3205094 30.8059955,13.9923963 31.0197425,13.6496513 C28.3841801,13.7130762 25.7104082,13.5582683 22.9984267,13.1852278 C23.8348674,12.7968352 24.5445717,12.3817379 25.1275396,11.9399359 C17.8419303,9.44109245 11.9977622,9.85618976 7.59503507,13.1852278 Z" id="Path-7" stroke="#006E4A" fill="#006E4A"></path>
                    <path d="M42.3194827,19.4197204 C32.1423086,18.3983498 26.2356274,21.0771137 22.2862901,25.3791703 C15.0578095,34.9870497 12.698268,44.4926857 15.2076656,53.8960784 C15.2371803,47.3869792 17.251433,42.579205 21.2504237,39.4727558 C21.0540127,41.3305055 21.5720304,41.4312123 21.6911867,42.2511797 C23.6359813,40.5412757 25.558918,37.3273615 27.4599966,32.6094369 C27.5201008,32.9924717 27.6838989,33.6532551 27.9513911,34.5917873 C29.2043485,33.3357578 30.4891327,31.119057 31.8057437,27.9416849 C31.9930698,28.2906268 32.2337529,28.9856816 32.5277928,30.0268491 C35.8114991,26.0374453 35.0007361,23.5249099 42.3194827,19.4197204 Z" id="Path-8" stroke="#006E4A" fill="#006E4A"></path>
                    <path d="M41.8241569,19.2744662 C44.308991,21.190193 45.3205861,24.1703641 44.8589423,28.2149797 C43.601382,27.8302708 42.2903492,27.0833799 40.9258438,25.9743069 C41.3251507,27.6592092 42.0613452,29.0935248 43.1344272,30.2772536 C42.2322328,30.0816835 41.1918035,29.7081532 40.0131394,29.1566628 C41.8007894,31.0578559 42.3890731,32.7872565 41.7779907,34.3448644 L39.2770646,33.1980738 L37.1367343,39.7726098 C35.4661236,29.5628745 37.0285978,22.73016 41.8241569,19.2744662 Z" id="Path-10" fill-opacity="0.5" fill="#077902"></path>
                    <path d="M41.8911993,20.0837004 C43.7548249,22.7331098 44.582032,26.6635677 44.3728209,31.8750743 C43.4296507,31.3430301 42.4463761,30.3100958 41.4229971,28.7762714 C41.7224772,31.1064556 42.2746231,33.0900835 43.0794346,34.7271552 C42.4027888,34.4566859 41.6224668,33.9401015 40.7384688,33.1774019 C42.0792062,35.8067116 42.520419,38.1984358 42.0621072,40.3525744 L40.1864126,38.7665873 L38.5811649,47.8590308 C37.1911852,34.1212948 38.29453,24.8628514 41.8911993,20.0837004 Z" id="Path-10" fill="#319637"></path>
                    <path d="M42.3582329,19.7078682 C43.8723644,19.8995303 49.292726,22.2123845 54.2593752,27.2846608 C58.6968994,32.6261848 60.28677,37.4313991 59.028987,41.7003038 C59.4712637,41.5243237 59.9623693,41.0694355 60.5023039,40.335639 C60.9391068,42.5147796 60.8713545,46.531042 59.9673879,48.1386119 C59.370855,47.0339198 58.5321467,46.1582244 57.4512628,45.5115257 C57.1742788,44.2893113 57.0157581,43.5804167 56.9757006,43.3848418 C55.7868202,43.6268571 55.5535679,44.1669166 55.3208063,45.3326782 C53.9742393,42.8244631 52.6831477,39.0933234 51.4475315,34.139259 C51.0622297,35.0046337 50.720646,35.940225 50.4227802,36.9460327 C49.3532745,26.6098253 43.2663719,21.1875466 42.3582329,19.7078682 Z" id="Path-12" fill-opacity="0.75" fill="#2D9105"></path>
                    <path d="M32.115775,20.5980887 C29.9676321,23.4498844 27.7330267,26.2446674 25.4119587,28.9824378 C22.8434304,32.4230296 20.5237288,35.6106254 18.4528537,38.5452253 C19.7139512,33.0739675 21.4148228,28.8892237 23.5554686,25.9909939 C26.0949101,22.5528328 28.9483456,20.7551978 32.115775,20.5980887 Z" id="Path-16" fill="#047325"></path>
                    <path d="M55.5222382,29.2658318 C55.5823834,30.3354871 53.8352035,30.8419779 54.1108909,32.447165 C55.547782,32.189595 55.4237529,32.8272607 56.512754,32.2562716 C57.2833132,35.7298341 54.6357162,41.0296373 54.0316467,41.9594956 C53.5056003,40.7539108 51.9159435,36.1617616 51.5167619,33.599092 C51.1714008,34.1779354 51.0671284,34.4517112 50.492996,36.1054633 C49.7447447,31.6732098 48.9679762,30.2164834 48.0189648,27.6607276 C48.2419096,25.9631751 49.4624734,25.1389858 51.6806564,25.1881597 C53.4522659,26.6170981 54.7327932,27.9763221 55.5222382,29.2658318 Z" id="Path-13" stroke="#5CB54C" fill="#5CB54C"></path>
                    <path d="M41.8426966,19.2652124 C36.3231571,22.3380382 33.3423729,24.4150297 32.900344,25.496187 C32.7131604,24.4536835 31.7087957,22.7314041 31.5623779,22.1581956 C30.8954541,23.0744892 30.7606708,25.4843061 31.158028,29.3876465 C30.3893929,28.7032844 29.7557776,27.9372877 29.2571823,27.0896562 C29.0161086,28.0695415 29.0019773,29.1539243 29.2147883,30.3428048 C28.6854254,30.2930845 28.1437468,29.8370727 27.5897523,28.9747695 C27.8981696,31.5298561 27.3719091,33.8149901 26.0109709,35.8301715 L25.4488597,33.6341383 C25.2385222,34.8350473 24.8500564,35.9148991 24.2834621,36.8736938 C23.5736623,35.8280653 23.5358966,35.4337098 23.4291148,34.3656499 C23.0488121,37.1967765 21.5025938,40.0994543 19.2313777,42.7651049 C19.0480704,42.2288796 19.0182561,41.1150751 19.1419347,39.4236915 L17.0786517,42.5288162 C17.5448545,36.295058 19.2536048,30.7104402 22.2049025,25.7749627 C24.5658121,21.3518191 31.1117435,19.1819024 41.8426966,19.2652124 Z" id="Path-15" fill-opacity="0.2" fill="#19871C"></path>
                    <path d="M48.8266196,7.47289855 C45.3519958,8.53413122 43.4735511,9.22447377 43.1912854,9.54392621 C43.0718564,9.23598369 42.430781,8.72734446 42.3373456,8.55803213 C41.911517,8.82881415 41.8253092,9.54072614 42.0787223,10.6937681 C41.588068,10.4917096 41.1836166,10.2655155 40.8653679,10.0151859 C40.7113997,10.3046921 40.7023055,10.6250355 40.8380854,10.9762161 C40.5001411,10.9616046 40.1543616,10.826971 39.8007468,10.5723152 C39.9974705,11.3270776 39.6613503,12.0022132 38.7923862,12.597722 L38.4336791,11.9490655 C38.2993183,12.3038607 38.0512475,12.6229197 37.689467,12.9062427 C37.2363977,12.5974526 37.2123144,12.4809601 37.1442159,12.1654563 C36.9012392,13.0018644 35.913932,13.8595784 34.4637989,14.6473763 C34.3468107,14.4889947 34.3278517,14.1599661 34.4069221,13.6602906 L33.0895048,14.5778851 C33.0652364,12.5383428 33.9953284,10.7893547 35.8797809,9.33092073 C36.7237256,8.59922877 40.9014228,7.074626 43.2847707,6.94249822 C44.5340711,6.87323964 46.3813541,7.05003975 48.8266196,7.47289855 Z" id="Path-15" fill-opacity="0.3" fill="#19871C" transform="translate(40.957831, 10.787627) rotate(107.000000) translate(-40.957831, -10.787627) "></path>
                    <path d="M27.0602774,21.6371617 C26.6018459,25.0782338 25.5256222,27.6911455 23.8316063,29.4758967 C21.9569832,31.7188168 19.6174765,33.2365953 16.8130864,34.0292322 C18.8410748,30.0019061 20.6362371,27.0435658 22.198573,25.1542112 C24.0519674,22.9128756 25.6725355,21.7405258 27.0602774,21.6371617 Z" id="Path-16" fill-opacity="0.5" fill="#5CB54C"></path>
                    <path d="M41.8052813,19.3012951 C46.4575179,18.3816994 52.7769316,18.1221661 60.7635224,18.5226951 C60.2073917,17.930694 59.8894973,16.9938521 59.809839,15.7121694 C61.0320507,17.1317069 62.6755612,18.3261002 64.7403705,19.2953493 C65.0362164,18.9581634 65.1682291,18.1512579 65.1364086,16.8746327 C65.8272187,18.0037917 67.583883,19.6173238 70.4064014,21.7152289 C70.0460619,20.9324364 69.7480423,20.1201529 69.5123426,19.2783783 C70.0409062,19.7679183 71.1704582,20.3411859 72.9009985,20.9981808 C70.2625842,17.5074287 66.325653,15.2059928 61.090205,14.0938731 C49.215181,11.3593461 44.5863567,17.8237201 41.8052813,19.3012951 Z" id="Path-17" fill="#047325"></path>
                    <path d="M43.4427732,19.4635048 C49.734532,20.397312 54.323936,21.8356231 57.2109851,23.7784379 C59.6332979,25.4085124 61.6845683,27.2931555 63.3647963,29.4323672 C63.794977,29.0284834 64.0983716,28.2201953 64.27498,27.0075027 C65.3662021,27.4435321 66.6958022,28.9043305 68.2637803,31.3898979 C67.7740374,28.7507475 66.318633,26.2643373 63.8975672,23.9306673 C61.9936983,22.1209643 60.0702992,20.5370097 54.9640512,18.9321325 C52.8619926,18.2659234 49.0215666,18.4430475 43.4427732,19.4635048 Z" id="Path-18" stroke="#08753B" fill="#08753B"></path>
                    <path d="M54.4736334,18.8017621 C54.7549011,19.8494825 54.8955349,20.6739384 54.8955349,21.2751296 C54.8955349,21.865417 54.6719296,22.3081839 54.2247191,22.6034303 L55.0645908,23.0748899 C55.8660355,22.5054671 56.3022139,21.9072142 56.373126,21.280131 C56.4562975,20.5446366 56.3903685,19.9211717 56.1753392,19.4097363 L54.4736334,18.8017621 Z" id="Path-19" stroke="#006E4A" fill="#006E4A"></path>
                    <path d="M41.9469215,19.2840598 C43.1745772,17.2521003 48.4997088,9.25666326 53.0611447,11.2476602 C53.5360957,10.2515463 54.4333165,9.54997886 55.752807,9.14295795 C57.680079,10.0467536 59.2486972,10.2553416 60.4586616,9.76872183 C59.4752893,9.05202447 59.3186088,8.3418144 59.2114937,7.89776919 C49.2699503,3.6429672 43.1892252,13.3302025 41.9469215,19.2840598 Z" id="Path-20" fill-opacity="0.75" fill="#309446"></path>
                    <path d="M33.2025001,12.43186 C33.9529181,11.8181138 34.5039461,12.10579 34.504553,10.6107805 C34.5051581,9.11577094 34.2033328,7.84171515 33.3776852,7.84204975 C32.5520376,7.84238449 31.2236344,10.6224428 31.2229647,12.2737847 C31.2222957,13.9251266 32.4520821,13.0456061 33.2025001,12.43186 Z" id="Oval" fill-opacity="0.35" fill="#1EA61C" transform="translate(32.863759, 10.532293) rotate(-44.000000) translate(-32.863759, -10.532293) "></path>
                    <path d="M36.9297109,14.369796 C37.4181817,13.9799515 39.051974,17.7703011 39.052359,16.8207 C39.0527438,15.871099 38.2831572,12.3877074 37.7457128,12.3879253 C37.2082684,12.3881431 35.1662701,12.7781236 35.1658448,13.8270239 C35.1654198,14.8759242 36.4412401,14.7596404 36.9297109,14.369796 Z" id="Oval" fill-opacity="0.5" fill="#1EA61C" transform="translate(37.109102, 14.680925) rotate(-44.000000) translate(-37.109102, -14.680925) "></path>
                    <path d="M60.5505958,21.0446545 C60.7810077,21.6003059 60.9679246,22.5233327 61.1113463,23.8137351 C61.1467131,24.2279245 61.0731443,25.2903884 60.8906401,27.0011266 L62.4174813,28.5787207 C62.3615693,28.0925665 62.4489644,27.2581461 62.6796666,26.0754594 C62.9103688,24.8927728 62.8012739,23.4733425 62.3523819,21.8171687 L60.5505958,21.0446545 Z" id="Path-19" stroke="#006E4A" fill="#006E4A"></path>
                    <path d="M51.7957521,16.9736872 C52.2145463,16.4147887 51.7971708,16.0613183 52.1320515,15.5155852 C52.4669321,14.9698521 51.2024341,14.9595169 50.463498,14.9597397 C49.7245619,14.9599625 48.753621,14.8625368 48.7714234,15.3779088 C48.7892258,15.8932807 51.3769579,17.5325857 51.7957521,16.9736872 Z" id="Oval" fill-opacity="0.2" fill="#6FC556" transform="translate(50.479278, 16.020431) rotate(-24.000000) translate(-50.479278, -16.020431) "></path>
                    <path d="M57.2004613,16.4118352 C57.6192555,15.8529367 60.653279,17.7761981 60.9881597,17.230465 C61.3230404,16.6847319 56.0413737,13.2601614 55.3024376,13.2603842 C54.5635015,13.260607 53.6412667,14.0607138 53.6590691,14.5760858 C53.6768715,15.0914578 56.7816671,16.9707336 57.2004613,16.4118352 Z" id="Oval" fill-opacity="0.5" fill="#6FC556" transform="translate(57.331115, 15.294725) rotate(-24.000000) translate(-57.331115, -15.294725) "></path>
                    <path d="M68.5939609,20.7854537 C68.9624754,20.4199309 65.7017728,15.4627679 65.5264231,16.9555777 C65.3510733,18.4483875 63.2170314,14.8763738 61.9375141,15.8543826 C61.3203323,16.3261302 62.7615436,17.5751182 64.46035,18.7007528 C66.2834428,19.9087401 68.4032012,20.9746646 68.5939609,20.7854537 Z" id="Oval" fill="#6FC556" opacity="0.3" transform="translate(65.207469, 18.244731) rotate(-24.000000) translate(-65.207469, -18.244731) "></path>
                    <path d="M43.0950545,5.06936464 C41.3862528,6.9591868 42.3286513,7.88781899 38.5015177,7.45473064 C38.7183425,7.72704371 41.3579983,8.30006098 39.6702379,9.04953152 C41.5272221,8.76076298 40.4517473,10.931032 40.7608648,11.484481 C41.0020563,8.74947777 44.0672368,7.96498989 41.6581404,13.8336297 C42.0833216,13.8305123 43.544973,9.76946137 43.7311937,12.9296514 C44.4987934,10.7533582 43.7510436,5.90996583 43.0950545,5.06936464 Z" id="Path-22" fill="#008327"></path>
                    <path d="M26.5737766,5.73302752 C27.6128764,6.62104288 28.8927818,7.20585614 30.4134929,7.4874673 C29.4633456,8.19715345 28.5786748,8.69449307 27.7594804,8.97948617 C31.1962499,8.82729908 33.5325071,9.93767954 34.7682521,12.3106275 C26.4306776,10.4203858 27.766824,13.0328303 24.4166664,13.3136704 C28.8898469,6.37888707 11.3628062,9.43387079 6.29102989,14.4710351 C11.1505221,7.99992163 17.9114377,5.08725243 26.5737766,5.73302752 Z" id="Path-23" fill-opacity="0.5" fill="#5CB54C"></path>
                    <path d="M39.5325488,3.64227305 C39.8863828,3.64213092 39.9946738,3.13727632 40.1736508,2.5741066 C40.3526279,2.01093689 39.7804525,1.52064445 39.5334066,1.50645482 C39.2863607,1.4922652 38.6098614,1.62352828 38.6096244,2.21331819 C38.6093876,2.80310811 39.1787148,3.64241517 39.5325488,3.64227305 Z" id="Oval" fill="#5CB54C" transform="translate(39.408681, 2.573862) rotate(-41.000000) translate(-39.408681, -2.573862) "></path>
                    <path d="M69.4674188,34.1206057 C69.9402343,34.1204158 70.0851144,33.0103029 70.32447,31.7719826 C70.5638256,30.5336622 69.7994185,29.4553351 69.469305,29.4240472 C69.1391916,29.3927594 68.2351648,29.681166 68.2346437,30.9780848 C68.2341231,32.2750036 68.9946034,34.1207956 69.4674188,34.1206057 Z" id="Oval" fill="#5CB54C" transform="translate(69.302369, 31.771216) rotate(-41.000000) translate(-69.302369, -31.771216) "></path>
                    <path d="M58.2919312,26.0713803 C58.7647467,26.0711904 58.1977861,24.0246252 57.876346,21.5261545 C57.5549059,19.0276837 54.6463802,17.9841237 53.9788554,18.4494766 C53.3113306,18.9148295 56.3396717,21.089228 56.3391508,22.3861468 C56.33863,23.6830656 57.8191158,26.0715702 58.2919312,26.0713803 Z" id="Oval" fill="#5CB54C" transform="translate(56.177792, 22.206511) rotate(-41.000000) translate(-56.177792, -22.206511) "></path>
                </g>
            </g>
            <text id="Los-Cabos" font-family="SigmarOne-Regular, Sigmar One" font-size="30" font-weight="normal" fill="#FFFFFF">
                <tspan x="0" y="93">Los</tspan>
            </text>
            <text id="Cabos" font-family="SigmarOne-Regular, Sigmar One" font-size="30" font-weight="normal" fill="#FFFFFF">
                <tspan x="94" y="93">Cabos</tspan>
            </text>
            <text id="Mexican-Restaurant-a" font-family="SigmarOne-Regular, Sigmar One" font-size="11" font-weight="normal" fill="#FFFFFF">
                <tspan x="2" y="107">Mexican Restaurant and Bar</tspan>
            </text>
        </g>
    </g>
</svg>