<?xml version="1.0" encoding="UTF-8"?>
<svg width="467px" height="356px" viewBox="0 0 467 356" version="1.1" xmlns="http://www.w3.org/2000/svg" xmlns:xlink="http://www.w3.org/1999/xlink">
    <title>Taco</title>
    <defs>
        <path d="M15.8197805,236.951216 C0.685442421,193.790497 0.063952471,156.616906 13.9553106,125.430443 C28.4157991,104.585728 54.5974082,130.779236 68.2407498,118.056175 C81.2435105,107.604788 83.6035055,49.8782937 99.9703726,45.2173309 C116.33724,40.5563681 132.096477,75.1476656 152.244376,72.4212691 C177.894409,64.7545111 152.244376,18.3637784 243.955171,0.548760982 C302.910038,-6.34212853 268.554143,53.8240992 283.229151,60.0514563 C303.590424,71.0530695 326.349722,47.6184449 348.265666,56.9098598 C372.469448,67.1712197 355.456601,88.7180499 375.468604,99.1570057 C392.768322,108.184316 424.935101,91.7937481 429.553964,102.120376 C437.63153,120.179806 390.775651,134.620578 400.861462,155.929121 C409.627635,174.449635 463.181225,165.61861 470.716643,184.269171 C480.097346,207.486906 443.03324,230.04775 438.8656,245.095722 C434.844362,265.555333 452.064369,270.363114 445.072412,284.72442 C441.889362,291.262324 431.97607,294.164866 415.332536,293.432046 L15.8197805,236.951216 Z" id="path-1"></path>
        <filter x="-1.6%" y="-1.9%" width="103.2%" height="105.1%" filterUnits="objectBoundingBox" id="filter-2">
            <feMorphology radius="0.5" operator="dilate" in="SourceAlpha" result="shadowSpreadOuter1"></feMorphology>
            <feOffset dx="0" dy="2" in="shadowSpreadOuter1" result="shadowOffsetOuter1"></feOffset>
            <feGaussianBlur stdDeviation="2" in="shadowOffsetOuter1" result="shadowBlurOuter1"></feGaussianBlur>
            <feComposite in="shadowBlurOuter1" in2="SourceAlpha" operator="out" result="shadowBlurOuter1"></feComposite>
            <feColorMatrix values="0 0 0 0 0   0 0 0 0 0   0 0 0 0 0  0 0 0 0.5 0" type="matrix" in="shadowBlurOuter1"></feColorMatrix>
        </filter>
        <path d="M413.242379,301.647449 C424.639011,300.239962 430.337327,296.056545 430.337327,289.097197 C433.225058,280.349986 439.60815,278.123957 439.60815,269.762224 C439.60815,264.014354 436.517875,259.136987 430.337327,255.130123 C418.650823,214.040584 405.152472,173.313478 389.842271,132.948804 C389.842271,123.777307 388.353318,128.953108 380.514891,121.252991 C377.327782,104.757638 365.684099,112.438563 359.246805,111.206144 C346.027686,108.675345 324.824869,92.5355335 297.127266,82.6131089 C288.987328,79.6970471 281.164095,79.6970471 273.657568,82.6131089 C267.37496,79.5965969 265.737051,74.5465715 268.743843,67.4630328 C275.28561,53.9076666 259.080295,62.8605351 250.073167,57.7660736 C244.766872,54.7648153 245.116426,62.5377768 238.107591,59.1746431 C219.77302,50.5855925 212.393302,69.8341878 183.204225,76.603554 C154.729746,83.2071946 79.3267698,127.479136 74.5549419,131.208735 C69.7831139,134.938334 63.9892523,127.534307 60.985401,128.966619 C49.6763636,134.359053 33.8985542,155.844929 13.6519729,193.424246 C16.4457736,198.234086 17.842674,202.96595 17.842674,207.619838 C17.842674,211.507096 13.6519729,211.323572 13.6519729,215.160424 C13.6519729,219.10535 15.0488732,223.094648 17.842674,227.12832 L413.242379,301.647449 Z" id="path-3"></path>
        <filter x="-1.8%" y="-2.2%" width="103.5%" height="106.1%" filterUnits="objectBoundingBox" id="filter-4">
            <feMorphology radius="0.5" operator="dilate" in="SourceAlpha" result="shadowSpreadOuter1"></feMorphology>
            <feOffset dx="0" dy="2" in="shadowSpreadOuter1" result="shadowOffsetOuter1"></feOffset>
            <feGaussianBlur stdDeviation="2" in="shadowOffsetOuter1" result="shadowBlurOuter1"></feGaussianBlur>
            <feComposite in="shadowBlurOuter1" in2="SourceAlpha" operator="out" result="shadowBlurOuter1"></feComposite>
            <feColorMatrix values="0 0 0 0 0   0 0 0 0 0   0 0 0 0 0  0 0 0 0.5 0" type="matrix" in="shadowBlurOuter1"></feColorMatrix>
        </filter>
        <path d="M201.524648,31.350689 C211.642738,31.350689 219.84507,37.9596549 219.84507,46.1122275 C219.84507,54.2648 211.642738,60.8737659 201.524648,60.8737659 C191.406558,60.8737659 183.204225,54.2648 183.204225,46.1122275 C183.204225,37.9596549 191.406558,31.350689 201.524648,31.350689 Z M200.691901,37.5660736 C192.873377,37.5660736 186.535211,42.0879976 186.535211,47.6660736 C186.535211,53.2441496 192.873377,57.7660736 200.691901,57.7660736 C208.510425,57.7660736 214.848592,53.2441496 214.848592,47.6660736 C214.848592,42.0879976 208.510425,37.5660736 200.691901,37.5660736 Z" id="path-5"></path>
        <filter x="-19.1%" y="-16.9%" width="138.2%" height="147.4%" filterUnits="objectBoundingBox" id="filter-6">
            <feOffset dx="0" dy="2" in="SourceAlpha" result="shadowOffsetOuter1"></feOffset>
            <feGaussianBlur stdDeviation="2" in="shadowOffsetOuter1" result="shadowBlurOuter1"></feGaussianBlur>
            <feComposite in="shadowBlurOuter1" in2="SourceAlpha" operator="out" result="shadowBlurOuter1"></feComposite>
            <feColorMatrix values="0 0 0 0 0   0 0 0 0 0   0 0 0 0 0  0 0 0 0.5 0" type="matrix" in="shadowBlurOuter1"></feColorMatrix>
        </filter>
        <path d="M181.228603,172.223074 C239.006384,172.223074 263.147887,171.238648 263.147887,134.328266 C263.147887,97.4178847 232.420781,41.6999968 174.643,41.6999968 C116.865219,41.6999968 76.3983492,92.1215062 76.3983492,129.031888 C76.3983492,165.942269 123.450822,172.223074 181.228603,172.223074 Z" id="path-7"></path>
        <filter x="-3.7%" y="-3.8%" width="107.5%" height="110.7%" filterUnits="objectBoundingBox" id="filter-8">
            <feOffset dx="0" dy="2" in="SourceAlpha" result="shadowOffsetOuter1"></feOffset>
            <feGaussianBlur stdDeviation="2" in="shadowOffsetOuter1" result="shadowBlurOuter1"></feGaussianBlur>
            <feComposite in="shadowBlurOuter1" in2="SourceAlpha" operator="out" result="shadowBlurOuter1"></feComposite>
            <feColorMatrix values="0 0 0 0 0   0 0 0 0 0   0 0 0 0 0  0 0 0 0.5 0" type="matrix" in="shadowBlurOuter1"></feColorMatrix>
        </filter>
        <path d="M144.065141,80.7535249 C152.803491,80.7535249 162.990213,86.4745625 162.990213,96.3434661 C162.990213,106.21237 152.803491,116.812227 144.065141,116.812227 C135.32679,116.812227 125.51994,109.588823 125.51994,99.7199198 C125.51994,89.8510161 135.32679,80.7535249 144.065141,80.7535249 Z M144.897887,87.2891505 C138.459103,87.2891505 133.239437,92.8545955 133.239437,99.7199198 C133.239437,106.585244 138.459103,112.150689 144.897887,112.150689 C151.336672,112.150689 156.556338,106.585244 156.556338,99.7199198 C156.556338,92.8545955 151.336672,87.2891505 144.897887,87.2891505 Z" id="path-9"></path>
        <filter x="-18.7%" y="-13.9%" width="137.4%" height="138.8%" filterUnits="objectBoundingBox" id="filter-10">
            <feOffset dx="0" dy="2" in="SourceAlpha" result="shadowOffsetOuter1"></feOffset>
            <feGaussianBlur stdDeviation="2" in="shadowOffsetOuter1" result="shadowBlurOuter1"></feGaussianBlur>
            <feComposite in="shadowBlurOuter1" in2="SourceAlpha" operator="out" result="shadowBlurOuter1"></feComposite>
            <feColorMatrix values="0 0 0 0 0   0 0 0 0 0   0 0 0 0 0  0 0 0 0.5 0" type="matrix" in="shadowBlurOuter1"></feColorMatrix>
        </filter>
        <path d="M346.883097,139.68026 C351.337741,132.042293 358.717764,129.018778 363.366839,132.92705 C368.015914,136.835323 368.17353,146.195399 363.718886,153.833367 C359.264241,161.471334 351.884218,164.494849 347.235144,160.586576 C342.586069,156.678304 342.428452,147.318227 346.883097,139.68026 Z M348.980952,141.236189 C345.554302,147.111548 345.553479,154.208991 348.979113,157.088771 C352.404747,159.96855 357.959621,157.540153 361.38627,151.664794 C364.81292,145.789434 364.813743,138.691992 361.388109,135.812212 C357.962475,132.932432 352.407602,135.36083 348.980952,141.236189 Z" id="path-11"></path>
        <filter x="-30.0%" y="-16.1%" width="160.0%" height="145.0%" filterUnits="objectBoundingBox" id="filter-12">
            <feOffset dx="0" dy="2" in="SourceAlpha" result="shadowOffsetOuter1"></feOffset>
            <feGaussianBlur stdDeviation="2" in="shadowOffsetOuter1" result="shadowBlurOuter1"></feGaussianBlur>
            <feComposite in="shadowBlurOuter1" in2="SourceAlpha" operator="out" result="shadowBlurOuter1"></feComposite>
            <feColorMatrix values="0 0 0 0 0   0 0 0 0 0   0 0 0 0 0  0 0 0 0.5 0" type="matrix" in="shadowBlurOuter1"></feColorMatrix>
        </filter>
        <filter x="-25.7%" y="-12.9%" width="151.5%" height="138.6%" filterUnits="objectBoundingBox" id="filter-13">
            <feGaussianBlur stdDeviation="1.5" in="SourceAlpha" result="shadowBlurInner1"></feGaussianBlur>
            <feOffset dx="0" dy="1" in="shadowBlurInner1" result="shadowOffsetInner1"></feOffset>
            <feComposite in="shadowOffsetInner1" in2="SourceAlpha" operator="arithmetic" k2="-1" k3="1" result="shadowInnerInner1"></feComposite>
            <feColorMatrix values="0 0 0 0 0   0 0 0 0 0   0 0 0 0 0  0 0 0 0.5 0" type="matrix" in="shadowInnerInner1"></feColorMatrix>
        </filter>
        <path d="M49.1320423,213.150689 C76.2669199,213.150689 87.6047858,212.498384 87.6047858,188.040667 C87.6047858,163.582949 73.1740436,126.66292 46.039166,126.66292 C18.9042883,126.66292 3.55021177e-14,144.408356 3.55021177e-14,168.866074 C3.55021177e-14,193.323791 21.9971646,213.150689 49.1320423,213.150689 Z" id="path-14"></path>
        <filter x="-8.0%" y="-5.8%" width="116.0%" height="116.2%" filterUnits="objectBoundingBox" id="filter-15">
            <feOffset dx="0" dy="2" in="SourceAlpha" result="shadowOffsetOuter1"></feOffset>
            <feGaussianBlur stdDeviation="2" in="shadowOffsetOuter1" result="shadowBlurOuter1"></feGaussianBlur>
            <feComposite in="shadowBlurOuter1" in2="SourceAlpha" operator="out" result="shadowBlurOuter1"></feComposite>
            <feColorMatrix values="0 0 0 0 0   0 0 0 0 0   0 0 0 0 0  0 0 0 0.5 0" type="matrix" in="shadowBlurOuter1"></feColorMatrix>
        </filter>
        <ellipse id="path-16" cx="41.4516497" cy="163.816177" rx="29.5736775" ry="25.2430666"></ellipse>
        <filter x="-11.8%" y="-9.9%" width="123.7%" height="127.7%" filterUnits="objectBoundingBox" id="filter-17">
            <feOffset dx="0" dy="2" in="SourceAlpha" result="shadowOffsetOuter1"></feOffset>
            <feGaussianBlur stdDeviation="2" in="shadowOffsetOuter1" result="shadowBlurOuter1"></feGaussianBlur>
            <feComposite in="shadowBlurOuter1" in2="SourceAlpha" operator="out" result="shadowBlurOuter1"></feComposite>
            <feColorMatrix values="0 0 0 0 0   0 0 0 0 0   0 0 0 0 0  0 0 0 0.5 0" type="matrix" in="shadowBlurOuter1"></feColorMatrix>
        </filter>
        <path d="M410.450707,280.349986 C437.585585,280.349986 500.742437,140.291271 405.285971,130.796843 C382.316819,129.192022 359.246805,148.542279 359.246805,172.999997 C359.246805,197.457715 383.315829,280.349986 410.450707,280.349986 Z" id="path-18"></path>
        <filter x="-7.2%" y="-3.3%" width="114.4%" height="109.4%" filterUnits="objectBoundingBox" id="filter-19">
            <feOffset dx="0" dy="2" in="SourceAlpha" result="shadowOffsetOuter1"></feOffset>
            <feGaussianBlur stdDeviation="2" in="shadowOffsetOuter1" result="shadowBlurOuter1"></feGaussianBlur>
            <feComposite in="shadowBlurOuter1" in2="SourceAlpha" operator="out" result="shadowBlurOuter1"></feComposite>
            <feColorMatrix values="0 0 0 0 0   0 0 0 0 0   0 0 0 0 0  0 0 0 0.5 0" type="matrix" in="shadowBlurOuter1"></feColorMatrix>
        </filter>
        <path d="M258.469705,73.9172301 C263.820993,64.9104082 274.354729,60.8130267 281.997463,64.7654723 C289.640196,68.7179179 291.49778,79.2234799 286.146492,88.2303018 C280.795204,97.2371236 270.261468,101.334505 262.618734,97.3820595 C254.976001,93.4296139 253.118417,82.9240519 258.469705,73.9172301 Z M264.400807,76.5538485 C260.833282,82.5583965 261.854279,89.4496802 266.681269,91.9459617 C271.508259,94.4422431 278.313357,91.5982312 281.880883,85.5936833 C285.448408,79.5891354 284.427411,72.6978516 279.600421,70.2015702 C274.773432,67.7052887 267.968333,70.5493006 264.400807,76.5538485 Z" id="path-20"></path>
        <filter x="-20.7%" y="-14.0%" width="141.4%" height="139.3%" filterUnits="objectBoundingBox" id="filter-21">
            <feOffset dx="0" dy="2" in="SourceAlpha" result="shadowOffsetOuter1"></feOffset>
            <feGaussianBlur stdDeviation="2" in="shadowOffsetOuter1" result="shadowBlurOuter1"></feGaussianBlur>
            <feComposite in="shadowBlurOuter1" in2="SourceAlpha" operator="out" result="shadowBlurOuter1"></feComposite>
            <feColorMatrix values="0 0 0 0 0   0 0 0 0 0   0 0 0 0 0  0 0 0 0.5 0" type="matrix" in="shadowBlurOuter1"></feColorMatrix>
        </filter>
        <filter x="-17.8%" y="-11.2%" width="135.5%" height="133.7%" filterUnits="objectBoundingBox" id="filter-22">
            <feGaussianBlur stdDeviation="1.5" in="SourceAlpha" result="shadowBlurInner1"></feGaussianBlur>
            <feOffset dx="0" dy="1" in="shadowBlurInner1" result="shadowOffsetInner1"></feOffset>
            <feComposite in="shadowOffsetInner1" in2="SourceAlpha" operator="arithmetic" k2="-1" k3="1" result="shadowInnerInner1"></feComposite>
            <feColorMatrix values="0 0 0 0 0   0 0 0 0 0   0 0 0 0 0  0 0 0 0.5 0" type="matrix" in="shadowInnerInner1"></feColorMatrix>
        </filter>
        <path d="M289.533101,150.98981 C316.667979,150.98981 360.264955,139.965407 362.494616,115.507689 C364.724277,91.0499714 347.980382,73.3045352 320.845504,73.3045352 C293.710626,73.3045352 274.806338,91.0499714 274.806338,115.507689 C274.806338,139.965407 262.398224,150.98981 289.533101,150.98981 Z" id="path-23"></path>
        <filter x="-7.7%" y="-6.4%" width="115.4%" height="118.0%" filterUnits="objectBoundingBox" id="filter-24">
            <feOffset dx="0" dy="2" in="SourceAlpha" result="shadowOffsetOuter1"></feOffset>
            <feGaussianBlur stdDeviation="2" in="shadowOffsetOuter1" result="shadowBlurOuter1"></feGaussianBlur>
            <feComposite in="shadowBlurOuter1" in2="SourceAlpha" operator="out" result="shadowBlurOuter1"></feComposite>
            <feColorMatrix values="0 0 0 0 0   0 0 0 0 0   0 0 0 0 0  0 0 0 1 0" type="matrix" in="shadowBlurOuter1"></feColorMatrix>
        </filter>
    </defs>
    <g id="Page-1" stroke="none" stroke-width="1" fill="none" fill-rule="evenodd">
        <g id="Group" transform="translate(-20.131542, -0.245151)">
            <g id="Taco" transform="translate(236.500000, 151.500000) rotate(-25.000000) translate(-236.500000, -151.500000) ">
                <g id="Path-2">
                    <use fill="black" fill-opacity="1" filter="url(#filter-2)" xlink:href="#path-1"></use>
                    <use stroke="#2EA439" stroke-width="1" fill="#2EA439" fill-rule="evenodd" xlink:href="#path-1"></use>
                </g>
                <g id="Path-3">
                    <use fill="black" fill-opacity="1" filter="url(#filter-4)" xlink:href="#path-3"></use>
                    <use stroke="#663A16" stroke-width="1" fill="#663A16" fill-rule="evenodd" xlink:href="#path-3"></use>
                </g>
                <g id="Combined-Shape">
                    <use fill="black" fill-opacity="1" filter="url(#filter-6)" xlink:href="#path-5"></use>
                    <path stroke="#000000" stroke-width="1" d="M201.524648,31.850689 C206.459704,31.850689 210.930375,33.456961 214.165434,36.063585 C217.357115,38.6352568 219.34507,42.1838873 219.34507,46.1122275 C219.34507,50.0405676 217.357115,53.5891981 214.165434,56.16087 C210.930375,58.7674939 206.459704,60.3737659 201.524648,60.3737659 C196.589591,60.3737659 192.118921,58.7674939 188.883862,56.16087 C185.692181,53.5891981 183.704225,50.0405676 183.704225,46.1122275 C183.704225,42.1838873 185.692181,38.6352568 188.883862,36.063585 C192.118921,33.456961 196.589591,31.850689 201.524648,31.850689 Z M200.691901,37.0660736 C196.667588,37.0660736 193.027393,38.2365043 190.391218,40.1172663 C187.683354,42.0491746 186.035211,44.7261407 186.035211,47.6660736 C186.035211,50.6060066 187.683354,53.2829726 190.391218,55.2148809 C193.027393,57.095643 196.667588,58.2660736 200.691901,58.2660736 C204.716215,58.2660736 208.35641,57.095643 210.992585,55.2148809 C213.700449,53.2829726 215.348592,50.6060066 215.348592,47.6660736 C215.348592,44.7261407 213.700449,42.0491746 210.992585,40.1172663 C208.35641,38.2365043 204.716215,37.0660736 200.691901,37.0660736 Z" stroke-linejoin="square" fill="#000000" fill-rule="evenodd"></path>
                </g>
                <g id="Oval">
                    <use fill="black" fill-opacity="1" filter="url(#filter-8)" xlink:href="#path-7"></use>
                    <path stroke="#E84943" stroke-width="1" d="M174.643,42.1999968 C200.026524,42.1999968 220.156476,53.020527 234.719408,68.261936 C253.121551,87.5214222 262.647887,113.836421 262.647887,134.328266 C262.647887,142.664098 261.412982,149.149866 258.808593,154.191059 C256.182381,159.274495 252.160476,162.874973 246.635251,165.430871 C233.593891,171.463636 212.280964,171.723074 181.228603,171.723074 C149.402234,171.723074 120.833993,169.826686 101.632628,161.915518 C93.6477739,158.625673 87.2900469,154.296155 83.0201028,148.610707 C79.0550422,143.331212 76.8983492,136.884025 76.8983492,129.031888 C76.8983492,109.210614 88.6576864,85.4830235 108.499501,67.8451863 C125.410963,52.812205 148.205039,42.1999968 174.643,42.1999968 Z" stroke-linejoin="square" fill="#E84943" fill-rule="evenodd"></path>
                </g>
                <g id="Combined-Shape">
                    <use fill="black" fill-opacity="1" filter="url(#filter-10)" xlink:href="#path-9"></use>
                    <path stroke="#000000" stroke-width="1" d="M144.065141,81.2535249 C148.659056,81.2535249 153.664418,82.869995 157.305583,85.8694838 C160.388411,88.4090307 162.490213,91.9473499 162.490213,96.3434661 C162.490213,101.108386 160.043255,106.040151 156.555041,109.812892 C153.00512,113.652375 148.362482,116.312227 144.065141,116.312227 C139.594057,116.312227 134.838478,114.366585 131.328658,111.131736 C128.171983,108.222366 126.01994,104.262869 126.01994,99.7199198 C126.01994,95.0345077 128.301415,90.5339841 131.612185,87.1480207 C135.08785,83.5934173 139.708432,81.2535249 144.065141,81.2535249 Z M144.897887,86.7891505 C141.536952,86.7891505 138.492516,88.2389511 136.289417,90.5879961 C134.097554,92.9250592 132.739437,96.1530314 132.739437,99.7199198 C132.739437,103.286808 134.097554,106.51478 136.289417,108.851843 C138.492516,111.200888 141.536952,112.650689 144.897887,112.650689 C148.258823,112.650689 151.303258,111.200888 153.506358,108.851843 C155.69822,106.51478 157.056338,103.286808 157.056338,99.7199198 C157.056338,96.1530314 155.69822,92.9250592 153.506358,90.5879961 C151.303258,88.2389511 148.258823,86.7891505 144.897887,86.7891505 Z" stroke-linejoin="square" fill="#000000" fill-rule="evenodd"></path>
                </g>
                <g id="Combined-Shape">
                    <use fill="black" fill-opacity="1" filter="url(#filter-12)" xlink:href="#path-11"></use>
                    <use fill="#000000" fill-rule="evenodd" xlink:href="#path-11"></use>
                    <use fill="black" fill-opacity="1" filter="url(#filter-13)" xlink:href="#path-11"></use>
                    <path stroke="#000000" stroke-width="1" d="M359.479911,131.764883 C360.769583,131.912735 361.983697,132.417508 363.045096,133.309779 C365.27341,135.183025 366.395923,138.37315 366.456828,141.989991 C366.519145,145.69069 365.465366,149.846382 363.286976,153.581466 C361.124295,157.289615 358.259116,159.889551 355.360373,161.077135 C353.924298,161.665479 352.48247,161.904705 351.122072,161.748744 C349.832399,161.600892 348.618286,161.096119 347.556887,160.203848 C345.328573,158.330602 344.206059,155.140476 344.145154,151.523635 C344.082837,147.822937 345.136616,143.667245 347.315007,139.93216 C349.477688,136.224011 352.342866,133.624076 355.24161,132.436492 C356.677685,131.848148 358.119512,131.608922 359.479911,131.764883 Z M358.592082,134.125881 C357.440694,134.019862 356.212502,134.246106 354.984631,134.782888 C352.659659,135.799285 350.324841,137.93949 348.549042,140.984289 C346.788037,144.003721 345.910768,147.337723 345.910426,150.285764 C345.910073,153.327609 346.848177,155.950591 348.65737,157.471499 C349.579082,158.246342 350.64136,158.670703 351.775141,158.775101 C352.926528,158.881121 354.15472,158.654877 355.382591,158.118094 C357.707563,157.101698 360.042381,154.961493 361.81818,151.916694 C363.579185,148.897262 364.456454,145.56326 364.456796,142.615218 C364.457149,139.573374 363.519045,136.950392 361.709853,135.429483 C360.788141,134.654641 359.725862,134.23028 358.592082,134.125881 Z" stroke-linejoin="square"></path>
                </g>
                <g id="Oval">
                    <use fill="black" fill-opacity="1" filter="url(#filter-15)" xlink:href="#path-14"></use>
                    <path stroke="#E4C94B" stroke-width="1" d="M46.039166,127.16292 C57.8678909,127.16292 67.2291902,134.303081 74.0093552,144.314991 C82.6416121,157.061787 87.1047858,174.479639 87.1047858,188.040667 C87.1047858,199.044739 84.8196117,205.174304 79.6750651,208.531998 C73.7815749,212.378505 64.2613248,212.637415 50.520242,212.650116 L49.1320423,212.650689 C35.6962875,212.650689 23.5306781,207.745346 14.725199,199.808626 C5.9395018,191.889736 0.5,180.951452 0.5,168.866074 C0.5,156.736176 5.20318933,146.274989 13.2847939,138.866749 C21.3141291,131.506423 32.6698867,127.16292 46.039166,127.16292 Z" stroke-linejoin="square" fill="#E4C94B" fill-rule="evenodd"></path>
                </g>
                <g id="Oval" transform="translate(41.451650, 163.816177) rotate(27.000000) translate(-41.451650, -163.816177) ">
                    <use fill="black" fill-opacity="1" filter="url(#filter-17)" xlink:href="#path-16"></use>
                    <ellipse stroke="#E84943" stroke-width="1" stroke-linejoin="square" fill="#E84943" fill-rule="evenodd" cx="41.4516497" cy="163.816177" rx="29.0736775" ry="24.7430666"></ellipse>
                </g>
                <g id="Oval">
                    <use fill="black" fill-opacity="1" filter="url(#filter-19)" xlink:href="#path-18"></use>
                    <path stroke="#E84943" stroke-width="1" d="M373.50016,142.936897 C382.089882,135.062876 393.681912,130.487303 405.25189,131.295922 C422.073698,132.971867 433.935017,138.724677 441.902128,147.078316 C451.115835,156.739029 455.112894,169.86177 455.604528,184.097823 C456.296121,204.124006 450.052682,226.356861 441.510227,244.370305 C436.564931,254.798433 430.848757,263.812913 425.255347,270.161455 C419.936731,276.198104 414.74766,279.849986 410.450707,279.849986 C405.366031,279.849986 400.409475,276.8391 395.698018,271.866973 C390.227914,266.094226 385.098607,257.672168 380.518815,248.070542 C368.111672,222.058724 359.746805,187.389298 359.746805,172.999997 C359.746805,161.147601 365.235798,150.512667 373.50016,142.936897 Z" stroke-linejoin="square" fill="#E84943" fill-rule="evenodd"></path>
                </g>
                <g id="Combined-Shape">
                    <use fill="black" fill-opacity="1" filter="url(#filter-21)" xlink:href="#path-20"></use>
                    <use fill="#000000" fill-rule="evenodd" xlink:href="#path-20"></use>
                    <use fill="black" fill-opacity="1" filter="url(#filter-22)" xlink:href="#path-20"></use>
                    <path stroke="#000000" stroke-width="1" d="M281.767783,65.2095976 C285.449799,67.1137552 287.729456,70.6010972 288.452373,74.689555 C289.18456,78.8304376 288.324764,83.5851376 285.716637,87.9749094 C283.101669,92.3761967 279.222476,95.5810613 275.060646,97.1999175 C270.943742,98.8012988 266.546879,98.850598 262.848414,96.9379343 C259.166398,95.0337767 256.886742,91.5464347 256.163824,87.4579768 C255.431637,83.3170942 256.291433,78.5623943 258.89956,74.1726225 C261.514528,69.7713352 265.393721,66.5664705 269.555551,64.9476143 C273.672455,63.3462331 278.069319,63.2969338 281.767783,65.2095976 Z M279.830101,69.7574449 C277.292363,68.4450516 274.232986,68.5176435 271.335513,69.728566 C268.494927,70.9157144 265.813606,73.197063 263.970953,76.2984561 C262.121876,79.4106612 261.470964,82.7531449 261.898494,85.638784 C262.336015,88.5918608 263.897018,91.0689881 266.451589,92.3900869 C268.989328,93.7024803 272.048704,93.6298884 274.946177,92.4189658 C277.786763,91.2318174 280.468084,88.9504688 282.310737,85.8490757 C284.159814,82.7368707 284.810726,79.394387 284.383196,76.5087478 C283.945675,73.555671 282.384673,71.0785437 279.830101,69.7574449 Z" stroke-linejoin="square"></path>
                </g>
                <g id="Oval">
                    <use fill="black" fill-opacity="1" filter="url(#filter-24)" xlink:href="#path-23"></use>
                    <path stroke="#E4C94B" stroke-width="1" d="M320.845504,73.8045352 C334.158992,73.8045352 344.951057,78.1117005 352.168052,85.4247012 C359.476427,92.8302968 363.104552,103.309775 361.996681,115.462295 C361.042654,125.927257 352.354223,133.852701 340.720425,139.510366 C325.366415,146.977218 304.824169,150.48981 289.533101,150.48981 C280.907443,150.48981 276.33325,149.416667 274.152117,147.032749 C271.542692,144.180719 272.430808,139.523215 273.520757,133.032621 C274.329882,128.214326 275.306338,122.390308 275.306338,115.507689 C275.306338,103.377792 280.009527,92.9166043 288.091132,85.508364 C296.120467,78.1480381 307.476225,73.8045352 320.845504,73.8045352 Z" stroke-linejoin="square" fill="#E4C94B" fill-rule="evenodd"></path>
                </g>
                <path d="M11.0575192,271.121102 C14.0008333,98.0556235 208.102083,62.4211375 327.568614,119.952917 C395.718639,152.772085 439.581297,215.909091 409.816233,301.146863 C340.868002,296.018982 125.51994,283.767407 11.0575192,271.121102 Z" id="Path" stroke="#F2B200" fill="#F2B200"></path>
                <path d="M13.6519729,241.197927 C79.4808107,253.554979 214.848592,268.890401 295.835856,261.596536 C377.006971,252.267296 366.889542,152.601538 315.807607,115.033056 C299.101308,107.491596 218.569873,76.1793043 125.303037,106.138069 C37.5107126,137.183166 17.9882345,213.150689 13.6519729,241.197927 Z" id="Path-4" stroke="#FBD54F" fill="#FBD54F"></path>
                <path d="M67.2316199,178.469372 C69.0380043,177.208614 71.4754226,176.497598 74.1119137,176.622818 C76.7462077,176.747934 79.0866175,177.684505 80.7364444,179.1084 C82.3364869,180.489329 83.2858699,182.332249 83.1707392,184.32314 C83.0554171,186.317341 81.8961836,188.062604 80.1427838,189.286382 C78.3363995,190.547141 75.8989812,191.258157 73.2624901,191.132936 C70.628196,191.007821 68.2877863,190.07125 66.6379593,188.647355 C65.0379168,187.266426 64.0885339,185.423506 64.2036645,183.432615 C64.3189866,181.438414 65.4782201,179.693151 67.2316199,178.469372 Z" id="Oval" stroke="#FFFFFF" fill="#FFFFFF"></path>
                <g id="Group-5" transform="translate(81.886672, 109.293262)" fill="#FFFFFF" stroke="#FFFFFF">
                    <path d="M7.42326957,58.0197988 C4.01366202,61.2581339 16.7202185,68.0470118 21.7480326,64.8661106 C34.9046251,55.6274628 49.777037,35.705397 135.290449,12.7736604 C148.976529,8.51052226 135.50715,-0.381455062 127.697495,2.42824745 C81.6032325,14.0299872 41.3495411,25.797722 7.42326957,58.0197988 Z" id="Path-5" transform="translate(74.008670, 33.791694) rotate(3.000000) translate(-74.008670, -33.791694) "></path>
                    <path d="M5.92636389,48.8033344 L22.0913784,50.723662 C22.2027466,50.7386552 22.3022704,50.7898805 22.3777712,50.86519 C22.453272,50.9404995 22.5047496,51.0398931 22.5200252,51.1512229 L22.5200252,51.1512229 L24.4292441,65.0657117 C24.4480131,65.2025012 24.4095603,65.3339485 24.3322179,65.4358907 C24.2654923,65.5238394 24.1698209,65.5898272 24.0569756,65.6183385 L24.0569756,65.6183385 L8.16720347,63.5155632 C8.05583528,63.50057 7.95631139,63.4493447 7.88081064,63.3740352 C7.80530989,63.2987257 7.75383227,63.1993321 7.73855661,63.0880023 L7.73855661,63.0880023 L5.82933774,49.1735135 C5.81056873,49.036724 5.84902149,48.9052766 5.92636389,48.8033344 L5.92636389,48.8033344 Z" id="Rectangle" transform="translate(15.129291, 57.119613) rotate(-43.000000) translate(-15.129291, -57.119613) "></path>
                </g>
            </g>
        </g>
    </g>
</svg>