<?xml version="1.0" encoding="UTF-8"?>
<svg width="72px" height="61px" viewBox="0 0 72 61" version="1.1" xmlns="http://www.w3.org/2000/svg" xmlns:xlink="http://www.w3.org/1999/xlink">
    <title>Palm Tree</title>
    <g id="Page-1" stroke="none" stroke-width="1" fill="none" fill-rule="evenodd">
        <g id="Palm-Tree" transform="translate(1.000000, 1.000000)">
            <g id="Small-Palm-Tree" transform="translate(22.530137, 34.515181) scale(-1, 1) rotate(3.000000) translate(-22.530137, -34.515181) translate(2.030137, 12.015181)">
                <path d="M19.3658196,11.5256949 C19.073071,12.3196181 18.6436466,13.0916977 18.0775464,13.841934 C18.4628367,14.336312 18.6065199,15.2494321 18.508596,16.5812942 C19.2742129,15.6033334 20.1492563,13.3889428 21.1337262,9.93812243 C20.5188642,10.7603421 19.929562,11.289533 19.3658196,11.5256949 Z" id="Path-14" stroke="#663A16" fill="#DAB26F"></path>
                <path d="M18.3581883,13.5922966 C17.9616738,14.1290388 17.65413,14.7328546 17.4355567,15.4037442 C17.7956273,16.794813 18.2184935,17.5536991 18.7041554,17.6804023 C19.2329721,15.473792 18.8703777,14.2052462 18.3581883,13.5922966 Z" id="Path-21" stroke="#663A16" fill="#DAB26F"></path>
                <path d="M17.4635881,15.1640521 C16.9705236,15.8082657 16.5548315,16.8302922 16.2165116,18.2301314 C17.7693561,18.2284586 18.618295,17.9638984 18.7633281,17.4364508 C18.035194,17.3599759 17.5613765,15.7418289 17.4635881,15.1640521 Z" id="Path-24" stroke="#663A16" fill="#DAB26F"></path>
                <path d="M19.1379708,16.9494469 C19.0343284,17.8412363 18.4689581,19.2039382 17.4418599,21.0375526 C16.5332152,19.6044854 16.0798589,18.535142 16.081791,17.8295223 C16.5327234,17.7435677 18.4286819,17.918045 19.1379708,16.9494469 Z" id="Path-25" stroke="#663A16" fill="#DAB26F"></path>
                <path d="M16.194926,17.03409 C15.4077597,18.1104269 13.8501465,22.8430605 14.5755424,24.4437817 C15.3428897,23.1738785 16.3839717,22.0972286 17.6987882,21.2138319 C16.7299518,20.0130963 16.2286644,18.619849 16.194926,17.03409 Z" id="Path-26" stroke="#663A16" fill="#DAB26F"></path>
                <path d="M18.6916888,20.1742985 C17.7427282,21.4209092 16.4461614,24.5435457 16.2945305,26.8174703 C15.4838233,26.0838247 14.9245739,25.1162609 14.6167824,23.914779 C15.4517944,22.5950966 16.8100966,21.3482698 18.6916888,20.1742985 Z" id="Path-27" stroke="#663A16" fill="#DAB26F"></path>
                <path d="M14.3310315,21.5623437 C12.5899956,25.0237685 12.5997892,29.0764325 12.7818441,30.2495683 C15.3688875,27.4042324 15.6101955,27.3586318 16.5224818,26.8935191 C15.9432835,26.3897834 14.3231437,24.6844934 14.3310315,21.5623437 Z" id="Path-28" stroke="#663A16" fill="#DAB26F"></path>
                <path d="M17.4926028,26.1359768 C16.8487759,27.185629 16.2670645,29.6555262 15.7474687,33.5456684 C14.2967831,32.2866607 13.3504046,31.0762754 12.9083332,29.9145125 C14.7066944,27.741297 15.5820821,27.0415418 17.4926028,26.1359768 Z" id="Path-29" stroke="#663A16" fill="#DAB26F"></path>
                <path d="M12.3154835,28.0135762 C12.2859319,32.5989878 11.9132137,35.3894074 11.5559636,36.2477179 C11.7734117,37.0106113 11.8441582,37.1772021 12.5584252,38.4893471 C13.545913,36.8870418 13.4232243,36.0554214 15.63087,33.7143035 C15.33895,33.2761579 13.0551709,31.2290897 12.3154835,28.0135762 Z" id="Path-30" stroke="#663A16" fill="#DAB26F"></path>
                <path d="M16.3394703,32.836205 C15.6272642,34.905558 15.1895842,37.7161307 15.0264303,41.267923 C13.6931503,40.2194404 12.7725282,39.2224478 12.2645639,38.2769454 C13.0230556,37.2688199 13.4694152,35.0269917 16.3394703,32.836205 Z" id="Path-31" stroke="#663A16" fill="#DAB26F"></path>
                <path d="M10.6847642,33.9488603 C9.98046698,37.3904476 10.9257942,41.8544572 9.83348725,43.6373019 C11.9356423,44.7137996 13.2316674,45.0680269 15.4364835,44.1673831 C15.3933068,43.9342219 15.3933068,42.9946068 15.4364835,41.3485379 C12.6176441,39.2285462 11.0337376,36.761987 10.6847642,33.9488603 Z" id="Path-32" stroke="#663A16" fill="#DAB26F"></path>
                <path d="M22.6731596,9.61308364 C20.7481156,8.4688712 19.2325592,7.70005634 18.1264902,7.30663907 C18.3801178,7.65105382 18.5132882,7.92816829 18.5260016,8.13798248 C15.4098825,6.99170866 11.9251638,7.12739099 8.07184542,8.54502948 C2.33356021,11.1737501 0.703188495,15.3179715 0.0064929582,20.0819695 C1.00433484,17.9955958 2.82560048,16.079144 5.47028987,14.3326143 C5.27196871,14.9074938 5.22427385,15.5346503 5.32720529,16.2140838 C8.09032574,14.5737361 9.70102308,13.0808782 10.1592973,11.73551 C10.3438515,12.2909621 10.3438515,12.8406381 10.1592973,13.3845381 C13.1909866,10.3417153 17.3622741,9.08456375 22.6731596,9.61308364 Z" id="Path-9" stroke="#006E4A" fill="#006E4A"></path>
                <path d="M13.5012301,7.26615198 C15.5194797,7.06504789 18.3753339,7.77147164 18.5200244,7.91349286 C16.5271433,8.56601881 15.5320997,9.1280951 14.4629542,10.4807114 C14.2396079,10.1029783 13.9159117,10.0439913 14.0804435,8.88735964 C13.4555397,9.43474041 12.9362431,10.323318 12.5225536,11.5530923 C12.0537662,10.7617822 11.7896934,10.1508885 11.7303354,9.72041093 C11.3881841,11.2990538 9.00417153,12.758627 8.78292055,13.5728901 C8.31874308,13.0730443 8.03541898,12.27154 7.93294825,11.1683773 C7.61033214,12.710513 7.35076577,13.7369859 7.15424914,14.2477957 C6.56420323,13.9391638 6.0574425,13.4861495 5.63396694,12.8887528 C5.51819717,13.6855324 4.18259382,15.169401 1.62715688,17.3403587 C2.13049183,16.3042687 2.13049183,15.8162462 1.62715688,15.8762913 C2.0139402,14.7958116 1.90804537,14.4809003 1.30947239,14.9315574 C4.54068423,7.82893503 11.4829806,7.46725607 13.5012301,7.26615198 Z" id="Path-11" fill-opacity="0.5" fill="#4A9E13"></path>
                <path d="M22.3236158,9.86373302 C24.0767857,10.9754908 24.4393697,14.7059348 24.4471411,14.7782199 C24.5691512,16.1092267 24.2656175,17.7003694 23.9473216,19.2073893 C23.8298873,18.9652793 23.6903377,18.776524 23.5286728,18.6411233 C22.6863063,23.1505629 21.8646273,26.1014181 21.063636,27.493689 C20.1473134,25.3998834 20.4097634,23.3703115 20.3711842,22.8981121 C20.2937605,23.178205 19.9200507,24.2116783 19.5392395,24.7881291 C18.7358964,22.8379583 18.3837404,20.801479 18.4827715,18.6786913 L18.0854366,19.8544164 C17.7219717,17.8357881 17.7847951,16.1223417 18.2739066,14.714077 C18.6252719,13.5486007 19.6758837,11.399937 22.3236158,9.86373302 Z" id="Path-2" stroke="#006E4A" fill="#006E4A"></path>
                <path d="M8.36692709,10.2722538 C8.82852889,9.64300106 9.30091381,10.2751434 9.66974949,9.66051076 C10.0385852,9.04587816 8.64010623,9.03076271 7.822893,9.02899321 C7.00567977,9.02722372 5.93161273,8.91467919 5.95273635,9.49603109 C5.97385997,10.077383 7.9053253,10.9015065 8.36692709,10.2722538 Z" id="Oval" fill-opacity="0.75" fill="#6FC556" transform="translate(7.841451, 9.758677) rotate(-24.000000) translate(-7.841451, -9.758677) "></path>
                <path d="M4.23151755,12.6833825 C4.2711117,12.6708984 4.62441044,12.6851634 4.77878777,12.2121356 C4.9331651,11.7391078 4.34486426,11.7281411 4.00109452,11.7271666 C3.65732478,11.7261921 3.20536742,11.6401171 3.21498765,12.0873566 C3.22460789,12.5345961 4.19192341,12.6958667 4.23151755,12.6833825 Z" id="Oval" fill-opacity="0.75" fill="#6FC556" transform="translate(4.009467, 12.201979) rotate(-52.000000) translate(-4.009467, -12.201979) "></path>
                <path d="M19.7136902,15.5245252 C20.1141798,15.1985767 20.316425,14.613485 20.3174475,13.820366 C20.3184604,13.0272471 20.1580861,12.3514873 19.7177608,12.352049 C19.2774355,12.3526114 19.057776,13.1183027 19.0566482,13.9943577 C19.0555278,14.8704127 19.3132005,15.8504736 19.7136902,15.5245252 Z" id="Oval" fill-opacity="0.35" fill="#1EA61C" transform="translate(19.687048, 13.970324) rotate(13.000000) translate(-19.687048, -13.970324) "></path>
                <path d="M19.0292526,18.8419013 C19.3183141,18.6827011 19.2768447,18.3506541 19.2764555,17.9619682 C19.2760664,17.5732823 19.1648987,17.1301277 18.8465775,17.1298105 C18.5282562,17.1294937 18.4567743,17.6402482 18.4572042,18.0695788 C18.457634,18.4989094 18.740191,19.0011014 19.0292526,18.8419013 Z" id="Oval" fill-opacity="0.35" fill="#1EA61C" transform="translate(18.867963, 18.000940) rotate(-10.000000) translate(-18.867963, -18.000940) "></path>
                <path d="M17.5667132,0.0751853286 C19.0668342,0.696002702 20.1777018,1.89390784 20.899316,3.66890074 C20.4624047,3.47144724 20.0534107,3.35885507 19.6723341,3.33112424 C20.7554245,4.83451727 21.5205097,6.98133717 21.9675896,9.77158392 C23.1952314,7.20218384 23.482594,5.01586955 22.8296774,3.21264103 C21.4974578,0.180226852 18.4132125,-0.00228720643 17.5667132,0.0751853286 Z" id="Path" stroke="#006E4A" fill="#006E4A"></path>
                <path d="M22.4348709,9.7713878 C24.8584442,12.1384809 26.3250309,14.9963135 26.8346313,18.3448854 C27.0581087,17.6716072 27.2489968,17.2466885 27.4072953,17.0701292 C27.9766876,19.4536788 28.6569115,21.41571 29.4479672,22.9562228 C29.5590058,22.474201 29.9056472,22.1996285 30.4878915,22.1325053 C30.8634378,23.666015 31.2243082,25.3371256 31.5705027,27.1458371 C33.4911284,25.2382357 33.6836744,19.5099713 31.9016293,16.1075736 C30.0375445,12.5485404 26.8819584,10.4364785 22.4348709,9.7713878 Z" id="Path-3" stroke="#006E4A" fill="#006E4A"></path>
                <path d="M34.5673803,15.0453624 C35.292405,16.4181893 36.6499459,17.0616831 39.848993,19.3649724 C39.7022308,16.4044475 37.7177582,13.6123403 33.8955751,10.9886507 C29.9511342,8.94789369 26.2674115,8.43720408 22.8444072,9.45658185 C24.183445,9.82469769 26.7965733,10.4931188 28.2740914,11.469133 C29.8504883,12.5104642 29.909031,12.5176341 30.4985456,13.1604353 C30.4612539,12.7446073 30.4283058,12.4936832 30.3997013,12.4076631 C32.252371,14.0762454 33.4678352,15.2743059 34.0460938,16.0018444 C34.26872,15.2091713 34.3506146,15.2851144 34.5673803,15.0453624 Z" id="Path-4" stroke="#006E4A" fill="#006E4A" transform="translate(31.346700, 14.156099) rotate(-1.000000) translate(-31.346700, -14.156099) "></path>
                <path d="M21.9020887,9.60253767 C22.2019053,8.44928464 23.1518962,4.7514482 26.8732909,3.43388182 C28.6020536,2.82181036 31.1054019,3.48155915 34.3833359,5.4131282 C32.4802515,5.48121737 30.8767164,5.41872328 29.5727306,5.22564592 C29.7260271,5.60240283 29.8970757,5.86291158 30.0858764,6.00717219 C28.3823699,6.09353252 27.1624005,6.09394331 26.4259681,6.00840455 C26.9662112,6.53623395 26.8936446,6.41700483 27.1833276,6.79435301 C25.1014489,6.43150333 24.4355691,6.44991745 21.9020887,9.60253767 Z" id="Path-5" stroke="#006E4A" fill="#006E4A" transform="translate(28.142712, 6.407749) rotate(-6.000000) translate(-28.142712, -6.407749) "></path>
                <path d="M22.4852889,9.63840204 C25.6446613,6.90566319 28.1269793,6.11031428 31.4545713,6.6606071 C35.2636323,7.29052175 38.3013372,9.27989658 40.5676859,12.6287316 C36.7531696,11.231212 34.692442,10.3683798 34.3855033,10.0402348 C34.3164809,10.6236358 34.3933623,10.8956986 34.3973478,11.1386083 C32.850486,9.64554871 27.6203017,8.15190365 22.4852889,9.63840204 Z" id="Path-6" stroke="#006E4A" fill="#006E4A"></path>
                <path d="M3.92657947,6.09024529 C6.45678545,2.96141989 10.1903565,1.66964029 15.1272927,2.21490649 C21.0151393,3.2791217 21.7265712,8.1220464 22.2636581,9.50321496 C19.9254204,7.5976429 17.8584465,6.72435341 16.0627365,6.88334648 C16.1057655,6.7117364 16.1837173,6.53211632 16.2965918,6.34448622 C14.9048161,6.37920712 13.4928628,6.29446015 12.0607321,6.09024529 C12.5024359,5.87762621 12.8772133,5.65038807 13.1850643,5.40853086 C9.33771305,4.04058041 6.25155146,4.26781855 3.92657947,6.09024529 Z" id="Path-7" stroke="#006E4A" fill="#006E4A"></path>
                <path d="M22.6801717,9.52718583 C17.2344949,8.98559856 14.0739047,10.4060276 11.9606644,12.6872163 C8.09279604,17.7818461 6.8302353,22.8222608 8.17298217,27.8084605 C8.18877508,24.3569756 9.26657615,21.8076274 11.4063854,20.160416 C11.3012883,21.1454977 11.5784731,21.1988981 11.6422321,21.6336902 C12.682867,20.7270044 13.711806,19.022809 14.7290491,16.5211041 C14.7612101,16.7242103 14.8488564,17.0745943 14.9919881,17.5722561 C15.6624297,16.9062397 16.3499014,15.7308221 17.0544033,14.0460034 C17.1546391,14.2310318 17.2834255,14.5995883 17.4407626,15.151673 C19.1978322,13.0362701 18.7640032,11.7039847 22.6801717,9.52718583 Z" id="Path-8" stroke="#006E4A" fill="#006E4A"></path>
                <path d="M22.35342,9.32366638 C23.3476722,10.39816 23.9140548,11.9976427 24.0525676,14.1221144 C23.3392606,13.9113597 22.5956232,13.5021911 21.8216554,12.8946087 C23.7092899,14.3653107 24.3741002,15.7961772 23.8160862,17.1872082 C23.0653209,15.9321978 22.2279441,15.0824603 21.3039558,14.6379957 C22.3179376,15.6795246 22.9679099,17.0242344 23.2538729,18.6721252 C22.3137469,18.4679404 21.7404224,18.0790611 21.5338993,17.5054871 C19.7560221,17.7552941 21.8221657,21.4516996 19.2470958,21.5879836 C18.856246,18.6733561 22.0096275,10.4737066 22.35342,9.32366638 Z" id="Path-10" fill-opacity="0.5" fill="#077902"></path>
                <path d="M22.4159778,9.3083683 C23.3880664,10.6953386 23.7696494,12.9310924 23.5607268,16.0156297 C23.0687583,15.7371037 22.5558709,15.1963609 22.0220646,14.3934012 C22.1782769,15.6132566 22.4662826,16.6516891 22.8860816,17.508699 C22.5331353,17.3671078 22.1261103,17.096675 21.6650067,16.6974005 C22.3643509,18.0738486 22.5944926,19.3259202 22.3554318,20.4536155 L21.3770479,19.6233486 L20.5397321,24.3832582 C19.9144983,16.8352252 20.5399135,11.8102619 22.4159778,9.3083683 Z" id="Path-10" fill="#319637"></path>
                <path d="M22.4709376,9.27119908 C23.2716164,9.37115862 26.0830372,11.073811 28.7094211,13.7204229 C31.0560017,16.5075228 31.8967317,19.0147871 31.231611,21.2422158 C31.4654887,21.1503929 31.7251873,20.9130413 32.0107069,20.5301611 C32.24169,21.6671929 32.2058623,23.7627979 31.7278411,24.6015956 C31.4123922,24.0251894 31.0330593,23.5535887 30.5898427,23.1867934 C30.4735956,22.6740001 30.4048807,22.3665799 30.3836981,22.2645329 C29.7550134,22.3908116 29.611424,22.6905817 29.4883387,23.2988527 C28.7762687,21.9901164 28.0209914,19.9895037 27.2225069,17.2970145 C27.088824,17.827086 26.9432262,18.3545268 26.7857136,18.8793371 C26.2201547,13.4861117 22.9511651,10.0432197 22.4709376,9.27119908 Z" id="Path-12" fill-opacity="0.75" fill="#2D9105"></path>
                <path d="M16.8930125,10.5325187 C15.7317906,11.9941165 14.5238295,13.4264943 13.2691294,14.829652 C11.8806596,16.5930186 10.6266981,18.2267202 9.50724475,19.7307566 C10.1889564,16.9266363 11.1083969,14.7818781 12.2655662,13.2964819 C13.6383125,11.5343611 15.1807947,10.61304 16.8930125,10.5325187 Z" id="Path-16" fill="#047325"></path>
                <path d="M29.468916,15.0069922 C29.5013735,15.5586174 28.6001998,15.7441561 28.7489755,16.571957 C29.5243992,16.4391272 29.4574664,16.7679738 30.0451499,16.4735125 C30.4609851,18.2648416 29.1127386,21.0288904 28.7867502,21.5084217 C28.5028673,20.8866971 27.564464,18.4875882 27.3490441,17.16601 C27.1626687,17.4645217 27.1365021,17.5577878 26.8266694,18.4106339 C26.4228728,16.1249043 26.0518859,15.3561775 25.5397483,14.0381647 C25.6600613,13.1627306 26.2910365,12.7596087 27.4326739,12.828799 C28.3641416,13.6159229 29.042889,14.3419873 29.468916,15.0069922 Z" id="Path-13" stroke="#5CB54C" fill="#5CB54C"></path>
                <path d="M22.2713339,9.38724886 C19.3023446,10.9893064 17.7000011,12.0797041 17.4643033,12.658442 C17.3644935,12.1003952 16.8289479,11.1784679 16.7508753,10.8716324 C16.3952593,11.3621196 16.3233904,12.6520822 16.5352685,14.7415203 C16.1254183,14.3751848 15.7875631,13.9651506 15.5217029,13.5114179 C15.393158,14.0359454 15.385623,14.61641 15.4990977,15.2528116 C15.2168317,15.2261965 14.9279988,14.9820958 14.6325989,14.5205093 C14.7970525,15.888234 14.5164409,17.1114545 13.7907638,18.1901708 L13.4910358,17.0146455 C13.37888,17.6574859 13.171743,18.235525 12.8696246,18.7487629 C12.4911464,18.1890433 12.471009,17.9779468 12.414071,17.4062199 C12.2112866,18.9217074 11.3868148,20.4754959 10.1757609,21.9024049 C10.0780182,21.6153663 10.0621206,21.0191525 10.1280683,20.1137636 L9.02788817,21.7759208 C9.536234,18.3988096 10.5772498,15.3892861 12.1509356,12.7473503 C13.4098157,10.3796643 16.7832818,9.2596305 22.2713339,9.38724886 Z" id="Path-15" fill-opacity="0.2" fill="#19871C"></path>
                <path d="M25.2486359,3.40216495 C23.6130948,4.19351688 22.7206185,4.67424819 22.571207,4.84435891 C22.5075515,4.6799901 22.1669907,4.40805757 22.1172606,4.31765717 C21.8916481,4.46166603 21.8466234,4.84130113 21.9821864,5.45656246 C21.7217196,5.34830302 21.5069551,5.22725539 21.3378929,5.09341958 C21.256507,5.24768444 21.2519998,5.41854054 21.3243714,5.60598787 C21.1450948,5.59786018 20.9615433,5.52570719 20.7737169,5.38952888 C20.8788152,5.79229941 20.7011884,6.15207153 20.2408364,6.46884525 L20.0499191,6.1225094 C19.9789984,6.31161754 19.8477252,6.48155225 19.6560993,6.63231352 C19.4154639,6.4671627 19.4025737,6.40500399 19.3661389,6.23665288 C19.2380794,6.68253678 18.7152118,7.13904876 17.9467695,7.55781107 C17.8845566,7.4732176 17.8741744,7.29770125 17.915623,7.03126203 L17.2177081,7.51938659 C17.2028179,6.43150941 17.6944544,5.49955217 18.6926175,4.72351487 C19.1395634,4.3340789 21.35411,3.52501638 22.6182233,3.45689902 C23.2808447,3.42119334 24.1576489,3.40294865 25.2486359,3.40216495 Z" id="Path-15" fill-opacity="0.3" fill="#19871C" transform="translate(21.233008, 5.479988) rotate(107.000000) translate(-21.233008, -5.479988) "></path>
                <path d="M14.0537961,11.1315016 C13.814527,12.9762001 13.2528138,14.3769362 12.3686564,15.3337101 C11.3902346,16.5361003 10.1691764,17.3497547 8.70548149,17.7746734 C9.76394915,15.6156945 10.7008979,14.0297801 11.5163276,13.0169302 C12.4836694,11.8153895 13.3294922,11.1869133 14.0537961,11.1315016 Z" id="Path-16" fill-opacity="0.5" fill="#5CB54C"></path>
                <path d="M22.4331945,9.30764393 C24.8799352,8.79960965 28.1853316,8.73861522 32.3493837,9.12466063 C32.0568992,8.7976073 31.8897096,8.28004527 31.8478151,7.57197452 C32.4906102,8.35620369 33.3549781,9.01605103 34.4409188,9.55151656 C34.5965124,9.36523688 34.6659415,8.91945869 34.6492062,8.21418199 C35.0125225,8.83799042 35.936401,9.72939264 37.420842,10.8883887 C37.2313294,10.4559318 37.0745926,10.0071826 36.9506316,9.54214084 C37.2286179,9.81258919 37.8226807,10.1292931 38.73282,10.4922526 C37.3452045,8.5637727 35.2746629,7.29233526 32.5211952,6.67794029 C26.2757898,5.16723997 23.8958395,8.49135173 22.4331945,9.30764393 Z" id="Path-17" fill="#047325"></path>
                <path d="M23.1307346,9.28697335 C26.4046895,9.840585 28.799664,10.618096 30.3156581,11.6195063 C31.5876185,12.4597168 32.6647438,13.4311429 33.5470342,14.5337846 C33.7729228,14.3256056 33.9322358,13.9089791 34.0249732,13.2839052 C34.5979757,13.5086535 35.2961508,14.2616118 36.1194986,15.5427801 C35.8623338,14.1824485 35.0980986,12.9008458 33.8267931,11.6979719 C32.8270685,10.7651731 31.8170885,9.94873481 29.1357895,9.12151206 C28.0319951,8.77811923 26.0303102,8.83327299 23.1307346,9.28697335 Z" id="Path-18" stroke="#08753B" fill="#08753B"></path>
                <path d="M29.0114324,9.41975878 C29.1426775,9.92093637 29.2083001,10.3153153 29.2083001,10.6028954 C29.2083001,10.8852597 29.1039614,11.0970574 28.8952839,11.2382887 L29.287185,11.4638116 C29.6611553,11.191428 29.8646849,10.9052534 29.8977739,10.6052878 C29.9365834,10.2534637 29.9058197,9.95522891 29.8054827,9.71058352 L29.0114324,9.41975878 Z" id="Path-19" stroke="#006E4A" fill="#006E4A"></path>
                <path d="M21.8076356,9.55381379 C22.44906,8.44274561 25.4975911,4.51797138 27.8790951,5.60563873 C28.1272856,5.06098407 28.5959208,4.67728246 29.2850009,4.45453389 C30.291209,4.94829619 31.1102644,5.06205452 31.7421673,4.79580887 C31.228806,4.40416644 31.1918733,4.15367881 31.1360219,3.91094005 C25.945574,1.58660631 22.4574284,6.29865859 21.8076356,9.55381379 Z" id="Path-20" fill-opacity="0.75" fill="#309446" transform="translate(26.774901, 6.421707) rotate(-6.000000) translate(-26.774901, -6.421707) "></path>
                <path d="M17.7216017,5.82704778 C18.119718,5.50195146 18.4133577,5.65592683 18.4110513,4.86080271 C18.4087176,4.06567859 18.2459032,3.38753481 17.8066827,3.38625262 C17.3674623,3.3849721 16.6657031,4.86120626 16.6682588,5.73947611 C16.6708284,6.61774596 17.3234854,6.15214409 17.7216017,5.82704778 Z" id="Oval" fill-opacity="0.35" fill="#1EA61C" transform="translate(17.539655, 4.815640) rotate(-44.000000) translate(-17.539655, -4.815640) "></path>
                <path d="M19.709769,6.84931607 C19.9689339,6.64283992 20.8447692,8.6616325 20.8432974,8.15658602 C20.8418219,7.65153954 20.4262646,5.79753062 20.1403582,5.79669399 C19.8544519,5.79586247 18.7688502,5.99966509 18.7704761,6.55752403 C18.7721057,7.11538298 19.4506041,7.05579222 19.709769,6.84931607 Z" id="Oval" fill-opacity="0.5" fill="#1EA61C" transform="translate(19.806887, 7.017335) rotate(-44.000000) translate(-19.806887, -7.017335) "></path>
                <path d="M32.30824,10.2651455 C32.4127234,10.5666509 32.4974834,11.0675002 32.5625199,11.7676933 C32.5785575,11.9924391 32.5451967,12.5689491 32.4624377,13.4972233 L33.1548046,14.3532513 C33.1294505,14.0894562 33.169081,13.6366862 33.273696,12.9949414 C33.3783111,12.3531965 33.3288405,11.5829908 33.1252843,10.6843242 L32.30824,10.2651455 Z" id="Path-19" stroke="#006E4A" fill="#006E4A"></path>
                <path d="M27.3497605,8.06164096 C27.5722845,7.76556631 27.3493177,7.57741982 27.5271248,7.28822217 C27.7049319,6.99902451 27.0308164,6.99187732 26.636891,6.99102436 C26.2429656,6.9901714 25.7252304,6.9371884 25.7353982,7.21073599 C25.745566,7.48428359 27.1272365,8.35771562 27.3497605,8.06164096 Z" id="Oval" fill-opacity="0.2" fill="#6FC556" transform="translate(26.645826, 7.554223) rotate(-24.000000) translate(-26.645826, -7.554223) "></path>
                <path d="M30.2353611,7.76125306 C30.4578851,7.46517883 32.0778461,8.48990063 32.2556532,8.20070338 C32.4334603,7.91150614 29.613311,6.08703917 29.2193857,6.08618492 C28.8254603,6.08533325 28.3348699,6.50876252 28.3450377,6.78230973 C28.3552055,7.05585693 30.0128371,8.05732729 30.2353611,7.76125306 Z" id="Oval" fill-opacity="0.5" fill="#6FC556" transform="translate(30.304296, 7.169448) rotate(-24.000000) translate(-30.304296, -7.169448) "></path>
                <path d="M36.3155195,10.085629 C36.5114936,9.89211892 34.7667028,7.25691025 34.6751862,8.04896112 C34.5836695,8.84101199 33.4413203,6.94242659 32.7604971,7.45980508 C32.4320984,7.70936528 33.2020475,8.37413686 34.109158,8.97377954 C35.0826336,9.6172927 36.2140745,10.1857986 36.3155195,10.085629 Z" id="Oval" fill="#6FC556" opacity="0.3" transform="translate(34.507070, 8.733095) rotate(-24.000000) translate(-34.507070, -8.733095) "></path>
                <path d="M22.3914351,2.56373509 C21.4512693,3.61052896 21.9697676,4.12490883 19.8641164,3.8850163 C19.9834113,4.03585359 21.4357239,4.35325434 20.5071348,4.76839455 C21.5288292,4.60844238 20.9371136,5.81057893 21.1071869,6.1171406 C21.2398881,4.60219138 22.9263203,4.16765467 21.6008592,7.41836064 C21.8347896,7.41663387 22.6389758,5.16717184 22.7414327,6.91763683 C23.1637585,5.71216343 22.7523539,3.02935359 22.3914351,2.56373509 Z" id="Path-22" fill="#008327"></path>
                <path d="M14.4909057,2.04449337 C15.0254469,2.60252911 15.7040418,2.95766693 16.5266902,3.10990682 C16.0126957,3.49356542 15.5341215,3.7624288 15.0909676,3.91649698 C16.9501328,3.83422415 18.2139616,4.43449937 18.8824539,5.71732264 C14.3721345,4.69545191 14.8229593,5.96832056 13.0106479,6.12014365 C15.4304732,2.37117765 6.66908412,3.53708241 2.83751011,7.06373833 C5.56877465,3.2026486 9.45323984,1.52956694 14.4909057,2.04449337 Z" id="Path-23" fill-opacity="0.5" fill="#5CB54C"></path>
                <path d="M20.4046457,1.83450479 C20.5929413,1.8350481 20.6496851,1.56682275 20.7439429,1.26771691 C20.8382008,0.96861108 20.532854,0.706936206 20.4013616,0.698959367 C20.2698692,0.690982528 19.9100941,0.759586092 19.911001,1.07315807 C19.9119079,1.38673006 20.2163502,1.83395983 20.4046457,1.83450479 Z" id="Oval" fill="#5CB54C" transform="translate(20.336351, 1.266431) rotate(-41.000000) translate(-20.336351, -1.266431) "></path>
                <path d="M37.0779206,17.326932 C37.3295343,17.3276584 37.4046897,16.7377001 37.5298967,16.0797433 C37.6551037,15.4217865 37.2464273,14.8471352 37.0706989,14.8299222 C36.8949706,14.8127093 36.4143878,14.9644627 36.4163758,15.6539927 C36.4183762,16.3435227 36.8263069,17.3262042 37.0779206,17.326932 Z" id="Oval" fill="#5CB54C" transform="translate(36.984860, 16.077792) rotate(-41.000000) translate(-36.984860, -16.077792) "></path>
                <path d="M31.1132362,13.0647118 C31.3648499,13.0654385 31.0595512,11.9763508 30.8841175,10.6474289 C30.7086838,9.31850707 29.1590517,8.75858488 28.8046359,9.00482941 C28.4502202,9.25107393 30.0655939,10.4124375 30.0675881,11.1019678 C30.0695823,11.7914981 30.8616225,13.0639843 31.1132362,13.0647118 Z" id="Oval" fill="#5CB54C" transform="translate(29.981291, 11.006498) rotate(-41.000000) translate(-29.981291, -11.006498) "></path>
            </g>
            <g id="BIg-Palm-Tree" transform="translate(23.000000, 0.000000)">
                <path d="M19.3299005,17.5316229 C19.0071653,18.403061 18.5337543,19.250523 17.9096677,20.0740089 C18.3344238,20.6166557 18.4928247,21.6189286 18.3848703,23.0808276 C19.2289103,22.0073832 20.1935856,19.5767897 21.2788961,15.7890472 C20.601053,16.6915446 19.9513878,17.2724032 19.3299005,17.5316229 Z" id="Path-14" stroke="#663A16" fill="#DAB26F"></path>
                <path d="M17.7203484,19.8343504 C17.2578114,20.4233079 16.8990593,21.0858642 16.644092,21.8220191 C17.0641169,23.3484138 17.5573934,24.1811258 18.1239216,24.3201549 C18.7407901,21.8988814 18.3178211,20.506929 17.7203484,19.8343504 Z" id="Path-21" stroke="#663A16" fill="#DAB26F"></path>
                <path d="M16.5758525,21.4494379 C15.9453226,22.2696965 15.4137363,23.5710131 14.9810934,25.3533879 C16.9668681,25.3512579 18.0524896,25.0144011 18.2379577,24.3428174 C17.3068212,24.2454441 16.7009042,22.1851044 16.5758525,21.4494379 Z" id="Path-24" stroke="#663A16" fill="#DAB26F"></path>
                <path d="M18.338134,24.4226309 C18.223562,25.380448 17.5985711,26.8440438 16.4631612,28.8134182 C15.4586962,27.2742474 14.9575316,26.1257302 14.9596675,25.3678667 C15.4581526,25.275548 17.5540477,25.4629436 18.338134,24.4226309 Z" id="Path-25" stroke="#663A16" fill="#DAB26F"></path>
                <path d="M14.8246064,24.2614182 C13.9313379,25.4436361 12.1637737,30.6418265 12.9869459,32.4000132 C13.8577241,31.0051876 15.0391336,29.8226259 16.5311745,28.852328 C15.4317485,27.5334742 14.8628925,26.0031709 14.8246064,24.2614182 Z" id="Path-26" stroke="#663A16" fill="#DAB26F"></path>
                <path d="M17.4232046,28.1876574 C16.3900926,29.5915326 14.9785495,33.1081012 14.8134724,35.6688898 C13.9308738,34.842692 13.3220316,33.7530665 12.9869459,32.4000132 C13.8960047,30.913848 15.3747575,29.5097294 17.4232046,28.1876574 Z" id="Path-27" stroke="#663A16" fill="#DAB26F"></path>
                <path d="M12.6483866,29.8101927 C10.8263685,33.7356175 10.8366176,38.3315365 11.0271406,39.6619298 C13.7345173,36.43518 13.9870494,36.3834666 14.9417696,35.8560061 C14.3356306,35.2847452 12.6401319,33.350863 12.6483866,29.8101927 Z" id="Path-28" stroke="#663A16" fill="#DAB26F"></path>
                <path d="M15.7370117,35.4278702 C15.0784083,36.6104056 14.483346,39.3929852 13.9518249,43.7756091 C12.4678444,42.3572144 11.4997455,40.9935975 11.0475281,39.6847584 C12.8871636,37.2364197 13.7826425,36.4480773 15.7370117,35.4278702 Z" id="Path-29" stroke="#663A16" fill="#DAB26F"></path>
                <path d="M10.2793296,37.6745828 C10.246005,42.7170143 9.82569948,45.7855501 9.42283701,46.7294069 C9.66804804,47.5683365 9.74782729,47.7515311 10.5532892,49.1944554 C11.6668558,47.4324511 11.5285027,46.5179445 14.0180124,43.9434916 C13.6888213,43.4616768 11.1134576,41.2105808 10.2793296,37.6745828 Z" id="Path-30" stroke="#663A16" fill="#DAB26F"></path>
                <path d="M15.0459837,43.0234813 C14.2607572,45.3705743 13.7782032,48.5583703 13.5983215,52.5868695 C12.1283443,51.3976639 11.1133335,50.2668591 10.5532892,49.1944554 C11.3895468,48.0510234 11.8816703,45.5083063 15.0459837,43.0234813 Z" id="Path-31" stroke="#663A16" fill="#DAB26F"></path>
                <path d="M9.03716489,44.9736735 C8.27128562,48.769811 9.29926995,53.6937 8.11145435,55.6602123 C10.3974167,56.84761 11.8067631,57.2383296 14.2043629,56.244902 C14.1311582,55.9973092 14.1311582,54.9608956 14.2043629,53.1356612 C11.139051,50.7972693 9.41665167,48.0766068 9.03716489,44.9736735 Z" id="Path-32" stroke="#663A16" fill="#DAB26F"></path>
                <path d="M25.5698324,11.4392909 C23.3982272,10.1669119 21.6885569,9.31197982 20.4408217,8.87449472 C20.7269341,9.25748838 20.8771612,9.56564326 20.8915029,9.79895936 C17.3762686,8.52428802 13.4452242,8.67516853 9.09836959,10.2516009 C2.62511999,13.1747723 0.785928887,17.7832001 0,23.0808276 C1.12564631,20.760753 3.18018118,18.6296339 6.16360461,16.6874702 C5.93988232,17.3267437 5.88607866,18.0241498 6.00219364,18.7796886 C9.11921689,16.9556007 10.9362137,15.2955234 11.4531841,13.7994565 C11.6613761,14.4171265 11.6613761,15.0283733 11.4531841,15.6331972 C14.8731747,12.2495387 19.5787242,10.85157 25.5698324,11.4392909 Z" id="Path-9" stroke="#006E4A" fill="#006E4A"></path>
                <path d="M14.9563684,8.80115848 C17.2113201,8.50000176 20.6028785,9.50060077 20.7649877,9.65770907 C18.5321918,10.3795537 17.2592416,11.0559142 16.061386,12.5522207 C15.6476423,12.146878 15.4344912,11.8684984 15.6188302,10.5889963 C14.9186968,11.194526 14.3368842,12.1774983 13.8733924,13.5379131 C13.3481695,12.6625412 13.0523061,11.9867514 12.9858023,11.5105437 C12.6024607,13.2568878 9.93144662,14.8715133 9.68356014,15.7722766 C9.16350224,15.2193315 8.84606991,14.3326825 8.73126315,13.1123294 C8.36980859,14.8182881 8.07899408,15.9538044 7.85881962,16.5188783 C7.19774049,16.1774599 6.6299729,15.6763214 6.15551685,15.0154626 C6.02581003,15.896885 4.52941884,17.5383869 1.66634327,19.9399681 C2.23027266,18.7938129 2.23027266,18.2539472 1.66634327,18.320371 C2.13877503,17.4264735 2.03967454,17.2287902 1.3690418,17.7273212 C4.98924605,9.87017833 12.7014167,9.1023152 14.9563684,8.80115848 Z" id="Path-11" fill-opacity="0.5" fill="#4A9E13"></path>
                <path d="M25.2429989,11.7592512 C27.2294728,13.0053311 27.6403078,17.1864858 27.6491135,17.2675043 C27.7873601,18.7593228 27.4434335,20.5427068 27.0827802,22.2318041 C26.9497183,21.9604425 26.791598,21.7488819 26.6084195,21.5971222 C25.6539546,26.6513903 24.7229303,29.9587667 23.8153466,31.5192512 C22.7770839,29.1724729 23.0744595,26.897689 23.0307464,26.3684386 C22.9430195,26.6823722 22.5195781,27.8407093 22.0880903,28.4868066 C21.1778417,26.301017 20.7788224,24.0184912 20.8910322,21.6392291 L20.4408217,22.9570049 C20.0289886,20.6944867 20.1001721,18.7740223 20.6543724,17.1956118 C21.0524959,15.8893231 22.2429184,13.4810587 25.2429989,11.7592512 Z" id="Path-2" stroke="#006E4A" fill="#006E4A"></path>
                <path d="M9.43790084,11.8570193 C9.95554064,11.1539794 10.4897807,11.8635547 10.9029976,11.1765595 C11.3162145,10.4895643 9.74117337,10.4676968 8.82080949,10.4628282 C7.90044561,10.4579596 6.69041782,10.3281319 6.71626132,10.9792352 C6.74210481,11.6303385 8.92026105,12.5600592 9.43790084,11.8570193 Z" id="Oval" fill-opacity="0.75" fill="#6FC556" transform="translate(8.843292, 11.278599) rotate(-24.000000) translate(-8.843292, -11.278599) "></path>
                <path d="M4.7732115,15.0451898 C4.81757395,15.031338 5.21399991,15.0490041 5.38501148,14.5179459 C5.55602305,13.9868876 4.89596725,13.9718455 4.51029302,13.9691644 C4.1246188,13.9664832 3.61717809,13.8676343 3.6300338,14.3704582 C3.6428895,14.873282 4.72884905,15.0590416 4.7732115,15.0451898 Z" id="Oval" fill-opacity="0.75" fill="#6FC556" transform="translate(4.521273, 14.502747) rotate(-52.000000) translate(-4.521273, -14.502747) "></path>
                <path d="M22.2295813,18.2186725 C22.6817424,17.8531794 22.9109576,17.1981798 22.9137577,16.3108667 C22.9165577,15.4235536 22.7371721,14.6678737 22.2407814,14.6694178 C21.7443907,14.6709665 21.4951675,15.5280503 21.4920746,16.5081493 C21.4889818,17.4882482 21.7774202,18.5841657 22.2295813,18.2186725 Z" id="Oval" fill-opacity="0.35" fill="#1EA61C" transform="translate(22.202920, 16.480047) rotate(13.000000) translate(-22.202920, -16.480047) "></path>
                <path d="M21.4622764,21.9281722 C21.7879366,21.7505661 21.7406396,21.3790819 21.7395689,20.94431 C21.7384982,20.509538 21.6124353,20.0136591 21.2535253,20.012786 C20.8946153,20.0119149 20.8148493,20.5831118 20.816032,21.0633476 C20.8172147,21.5435834 21.1366162,22.1057782 21.4622764,21.9281722 Z" id="Oval" fill-opacity="0.35" fill="#1EA61C" transform="translate(21.279282, 20.987261) rotate(-10.000000) translate(-21.279282, -20.987261) "></path>
                <path d="M20.4408217,0.0150232274 C22.0921066,0.740693252 23.3149138,2.140918 24.1092435,4.21569747 C23.6283056,3.98489515 23.1780983,3.85328679 22.7586214,3.82087237 C23.9508525,5.57818025 24.7930335,8.08758625 25.2851647,11.3490904 C26.6365133,8.34573272 26.9528327,5.79016193 26.2341232,3.682378 C24.7676587,0.137805688 21.3726209,-0.0755339941 20.4408217,0.0150232274 Z" id="Path" stroke="#006E4A" fill="#006E4A"></path>
                <path d="M25.5924486,11.7590155 C28.2387438,14.4053853 29.8401072,17.6003935 30.3965389,21.3440401 C30.6405535,20.5913265 30.8489838,20.1162745 31.0218297,19.9188843 C31.6435481,22.5836523 32.3862834,24.7771698 33.2500357,26.4994369 C33.3712784,25.9605447 33.7497756,25.6535773 34.3855271,25.5785347 C34.7955854,27.2929725 35.1896192,29.1612458 35.5676283,31.1833545 C37.664756,29.0506885 37.8749966,22.6465863 35.9291848,18.8427635 C33.893794,14.8638249 30.4482153,12.5025755 25.5924486,11.7590155 Z" id="Path-3" stroke="#006E4A" fill="#006E4A"></path>
                <path d="M38.9848086,17.6826503 C39.8027082,19.2179796 41.3338289,19.937813 44.9420476,22.5140732 C44.7760403,19.203344 42.537519,16.0806485 38.2264838,13.1459868 C33.7776649,10.8631885 29.6231339,10.2914818 25.7628908,11.4308668 C27.2730983,11.8427466 30.2202555,12.5906642 31.8867399,13.6823694 C33.664749,14.847134 33.7307738,14.8551616 34.3957261,15.5740932 C34.3536,15.1090736 34.3164,14.828464 34.2841261,14.7322644 C36.3738156,16.5985191 37.7447963,17.9384914 38.3970683,18.7521814 C38.6480112,17.8657854 38.7403833,17.9507248 38.9848086,17.6826503 Z" id="Path-4" stroke="#006E4A" fill="#006E4A" transform="translate(35.352469, 16.687959) rotate(-1.000000) translate(-35.352469, -16.687959) "></path>
                <path d="M25.4712707,11.4392909 C25.8074143,10.1313561 26.8724931,5.93753736 31.0496834,4.44454083 C32.9901845,3.75097382 35.8007249,4.500234 39.4813046,6.69232137 C37.3449027,6.76882305 35.5447295,6.69732822 34.080785,6.47783689 C34.2530197,6.90522284 34.4451393,7.20076392 34.6571438,7.36446013 C32.7447975,7.46176165 31.3752439,7.46176165 30.5484831,7.36446013 C31.1551659,7.96334419 31.0736568,7.82808373 31.3990009,8.2561924 C29.0617198,7.84384383 28.3142013,7.86447529 25.4712707,11.4392909 Z" id="Path-5" stroke="#006E4A" fill="#006E4A"></path>
                <path d="M25.5698324,11.5975379 C29.1375063,8.54864464 31.9406266,7.66128069 35.6982599,8.27523767 C39.9995849,8.97802803 43.4298676,11.1975565 45.9891079,14.933823 C41.6816225,13.3746223 39.3545769,12.4119678 39.0079709,12.0458593 C38.9300284,12.6967547 39.0168456,13.0002929 39.0213461,13.2713051 C37.2745756,11.6055114 31.3684685,9.93906443 25.5698324,11.5975379 Z" id="Path-6" stroke="#006E4A" fill="#006E4A"></path>
                <path d="M4.57131338,7.81689177 C7.45515317,4.42847773 11.7105462,3.02952331 17.3374924,3.62002851 C24.0482529,4.77253825 24.8591179,10.0172649 25.4712707,11.5130246 C22.8062296,9.44935333 20.4503655,8.5036098 18.4036783,8.67579402 C18.4527213,8.48994601 18.541568,8.29542342 18.6702185,8.09222626 C17.0839214,8.12982784 15.4746267,8.03804967 13.8423345,7.81689177 C14.3457729,7.58663236 14.772931,7.34054099 15.1238087,7.07861767 C10.7387331,5.59717275 7.22123469,5.84326411 4.57131338,7.81689177 Z" id="Path-7" stroke="#006E4A" fill="#006E4A"></path>
                <path d="M25.4713264,11.5130246 C19.3458705,10.9075028 15.7907466,12.4956139 13.4137124,15.0460978 C9.06302146,20.7421506 7.64285638,26.3775881 9.15321716,31.9524105 C9.17098149,28.0934765 10.3833235,25.2431768 12.7902433,23.4015115 C12.672027,24.5028825 12.9838125,24.5625868 13.0555305,25.0487062 C14.226067,24.0349858 15.3834475,22.1296096 16.5276722,19.3325775 C16.5638478,19.5596605 16.6624349,19.9514075 16.8234336,20.5078184 C17.5775658,19.7631785 18.3508541,18.4490025 19.1432983,16.5652903 C19.2560464,16.7721613 19.4009092,17.1842261 19.5778865,17.8014846 C21.5542895,15.4363576 21.066306,13.9467954 25.4713264,11.5130246 Z" id="Path-8" stroke="#006E4A" fill="#006E4A"></path>
                <path d="M25.1731988,11.4269104 C26.6687752,12.5626532 27.2776359,14.3294544 26.9997809,16.7273137 C26.2428783,16.4992382 25.4537915,16.0564423 24.6325205,15.3989258 C24.8728561,16.397824 25.3159581,17.2481612 25.9618267,17.9499374 C25.4188123,17.8339933 24.7925968,17.612545 24.0831804,17.2855926 C25.1591343,18.4127193 25.5132116,19.4379982 25.1454122,20.3614296 L23.6401503,19.6815522 L22.3519245,23.5792806 C21.3464143,17.5264162 22.2868391,13.4756261 25.1731988,11.4269104 Z" id="Path-10" fill-opacity="0.5" fill="#077902"></path>
                <path d="M25.2135504,11.9066667 C26.3352327,13.4773749 26.8331137,15.8075557 26.7071933,18.897209 C26.1395163,18.5817854 25.5477012,17.969408 24.931748,17.0600768 C25.1119997,18.4415317 25.4443262,19.6175299 25.9287276,20.5880715 C25.5214668,20.4277232 25.0518052,20.121465 24.5197429,19.6692968 C25.3267083,21.228089 25.5922663,22.646028 25.3164168,23.9231139 L24.1874703,22.9828579 L23.221301,28.3733333 C22.3846975,20.2288859 23.0487806,14.739997 25.2135504,11.9066667 Z" id="Path-10" fill="#319637"></path>
                <path d="M25.4946495,11.6838537 C26.4059776,11.797481 29.6683946,13.1686618 32.6577304,16.1757721 C35.3285954,19.3425065 36.2855096,22.1912886 35.5284729,24.7221183 C35.7946712,24.6177881 36.0902587,24.3481065 36.4152355,23.9130737 C36.6781393,25.2049821 36.6373604,27.5860322 36.0932793,28.5390836 C35.7342371,27.8841644 35.2294338,27.3650064 34.5788694,26.9816096 C34.4121578,26.2570171 34.3167471,25.8367474 34.2926372,25.7208004 C33.5770717,25.8642797 33.4366814,26.1844552 33.2965864,26.8755795 C32.4861123,25.3885786 31.7090278,23.1765641 30.9653328,20.2395359 C30.7334267,20.7525753 30.5278337,21.3072426 30.3485537,21.903538 C29.7048377,15.7756944 26.0412418,12.5610844 25.4946495,11.6838537 Z" id="Path-12" fill-opacity="0.75" fill="#2D9105"></path>
                <path d="M19.3299005,12.2116229 C18.0369724,13.9023163 16.692004,15.5592097 15.2949954,17.182303 C13.749045,19.2220655 12.3528588,21.1118388 11.1064368,22.8516229 C11.8654684,19.6079755 12.8891921,17.1270408 14.1776078,15.4088188 C15.7060515,13.3704973 17.4234823,12.3047654 19.3299005,12.2116229 Z" id="Path-16" fill="#047325"></path>
                <path d="M33.4178247,17.3503138 C33.4540249,17.9844613 32.4024292,18.2847355 32.5683604,19.2363742 C33.433199,19.0836733 33.3585481,19.4617148 34.0139981,19.1232026 C34.4777837,21.1825119 32.8842432,24.3245121 32.5206647,24.8757807 C32.204047,24.161047 31.2472615,21.4385811 31.0070014,19.9192968 C30.7991348,20.2624653 30.7363751,20.4247739 30.3908153,21.4052046 C29.9404565,18.7775332 29.4729336,17.9139097 28.9017409,16.3987241 C29.0359273,15.3923264 29.7705625,14.9037039 31.1056465,14.9328567 C32.171946,15.780006 32.9426721,16.5858251 33.4178247,17.3503138 Z" id="Path-13" stroke="#5CB54C" fill="#5CB54C"></path>
                <path d="M25.1843575,11.4214242 C21.8622471,13.2431559 20.0681674,14.4745049 19.8021183,15.1154714 C19.6894559,14.4974209 19.084947,13.4763637 18.9968208,13.1365358 C18.5954115,13.6797624 18.5142879,15.1084278 18.7534499,17.4225319 C18.2908225,17.0168063 17.909461,16.5626834 17.6093655,16.0601632 C17.4642676,16.6410904 17.4557623,17.2839692 17.5838494,17.9887996 C17.2652355,17.9593228 16.939209,17.6889752 16.6057698,17.1777568 C16.7914005,18.6925456 16.4746539,20.0472924 15.65553,21.2419972 L15.3172055,19.940074 C15.1906072,20.6520356 14.9567966,21.2922281 14.6157739,21.8606517 C14.1885583,21.2407486 14.1658278,21.006954 14.1015578,20.3737523 C13.8726605,22.052192 12.9420198,23.7730511 11.5750162,25.3533879 C11.4646869,25.0354856 11.4467422,24.3751641 11.5211821,23.3724236 L10.2793296,25.2133037 C10.5599286,21.5176062 11.5883943,18.2067531 13.3647267,15.2807442 C14.7857152,12.6584737 18.7255922,11.3720337 25.1843575,11.4214242 Z" id="Path-15" fill-opacity="0.2" fill="#19871C"></path>
                <path d="M29.3182619,4.42920322 C27.2583207,5.05834857 26.1449735,5.46857796 25.9782204,5.65989138 C25.906547,5.47448255 25.524705,5.16711597 25.4688121,5.06510476 C25.2167136,5.22679946 25.1673359,5.6545192 25.320679,6.34826396 C25.0289047,6.22556583 24.7882415,6.08857723 24.5986894,5.93729816 C24.5080211,6.11093452 24.5034313,6.30347316 24.5849201,6.51491407 C24.3842714,6.5052778 24.1786684,6.42347522 23.9681113,6.26950633 C24.0867967,6.72369819 23.8889721,7.12868035 23.3746375,7.4844528 L23.1600627,7.09363331 C23.0811986,7.30656501 22.9347434,7.49772828 22.720697,7.66712314 C22.4509646,7.48036255 22.436374,7.41027695 22.3951526,7.22045253 C22.2530274,7.72261231 21.6691035,8.23570016 20.8102584,8.70559227 C20.7404115,8.61009213 20.7283264,8.41226192 20.7740029,8.11210165 L19.9942689,8.66035078 C19.9747135,7.43430037 20.522423,6.38531437 21.6373973,5.51339279 C22.136536,5.07569613 24.6126687,4.16978941 26.0271478,4.09638317 C26.7685878,4.05790517 27.8656258,4.16884519 29.3182619,4.42920322 Z" id="Path-15" fill-opacity="0.3" fill="#19871C" transform="translate(24.656013, 6.397272) rotate(107.000000) translate(-24.656013, -6.397272) "></path>
                <path d="M16.2870885,12.8276396 C16.0111669,14.8676869 15.3634074,16.4167575 14.3438101,17.4748512 C13.2155085,18.8045714 11.8074021,19.7043898 10.1194907,20.1743063 C11.3401,17.7866971 12.4205755,16.0328384 13.3609171,14.9127303 C14.4764414,13.5839495 15.4518319,12.8889193 16.2870885,12.8276396 Z" id="Path-16" fill-opacity="0.5" fill="#5CB54C"></path>
                <path d="M25.1618379,11.4428159 C27.9619344,10.8976316 31.7654745,10.7437666 36.5724582,10.9812211 C36.2377333,10.630252 36.0463984,10.0748432 35.9984535,9.31499471 C36.7340805,10.1565707 37.7232796,10.8646695 38.9660507,11.4392909 C39.144115,11.2393895 39.223571,10.7610138 39.2044188,10.0041637 C39.6202048,10.6735881 40.6775091,11.6301742 42.3763316,12.8739219 C42.1594498,12.4098417 41.9800772,11.9282776 41.8382139,11.4292296 C42.1563467,11.7194545 42.8362034,12.0593175 43.8777842,12.4488184 C42.2897706,10.3793182 39.9202034,9.0149068 36.7690825,8.35558414 C29.6217217,6.73441371 26.8357166,10.5668323 25.1618379,11.4428159 Z" id="Path-17" fill="#047325"></path>
                <path d="M26.1474145,11.5389823 C29.9343096,12.092592 32.6965883,12.9452979 34.4342507,14.0971 C35.8921967,15.0634934 37.126819,16.1808082 38.1381176,17.4490446 C38.3970356,17.2096013 38.5796433,16.7304058 38.6859406,16.0114583 C39.3427274,16.2699593 40.1429895,17.1359969 41.0867269,18.6095711 C40.7919596,17.0449449 39.9159782,15.5708711 38.4587827,14.1873496 C37.3128787,13.1144631 36.1552198,12.1754121 33.081862,11.223957 C31.8166712,10.8289935 29.5051887,10.9340019 26.1474145,11.5389823 Z" id="Path-18" stroke="#08753B" fill="#08753B"></path>
                <path d="M32.7866885,11.1466667 C32.9559784,11.76781 33.0406233,12.2565905 33.0406233,12.6130081 C33.0406233,12.9629613 32.9060394,13.2254566 32.6368715,13.4004942 L33.142375,13.68 C33.62475,13.3424165 33.8872778,12.9877409 33.9299585,12.6159732 C33.9800179,12.1799337 33.9403365,11.8103111 33.8109143,11.5071055 L32.7866885,11.1466667 Z" id="Path-19" stroke="#006E4A" fill="#006E4A"></path>
                <path d="M25.2470886,11.4325979 C25.9859922,10.2279462 29.191092,5.48783349 31.9365373,6.66820049 C32.2224016,6.07765211 32.7624225,5.6617263 33.5565998,5.42042304 C34.7165898,5.95624033 35.6607125,6.07990217 36.388968,5.79140856 C35.7970941,5.36651293 35.702791,4.9454633 35.6383204,4.6822101 C29.6546864,2.15974124 25.9948086,7.90284032 25.2470886,11.4325979 Z" id="Path-20" fill-opacity="0.75" fill="#309446"></path>
                <path d="M19.9889974,7.37756558 C20.4346214,7.01441648 20.7651722,7.18870567 20.7587887,6.29587458 C20.7524053,5.40304349 20.5663087,4.64080348 20.0729655,4.63727237 C19.5796222,4.63375252 18.7984123,6.28803581 18.8054633,7.2742298 C18.8125143,8.26042379 19.5433735,7.74071468 19.9889974,7.37756558 Z" id="Oval" fill-opacity="0.35" fill="#1EA61C" transform="translate(19.782148, 6.240274) rotate(-44.000000) translate(-19.782148, -6.240274) "></path>
                <path d="M22.2298314,8.51339073 C22.5199457,8.28277594 23.5132789,10.5537802 23.5092367,9.98667126 C23.5051696,9.4195623 23.0296056,7.3357755 22.7084703,7.33346318 C22.3873351,7.33118577 21.1689505,7.55487224 21.1734168,8.1812835 C21.1779077,8.80769477 21.9397171,8.74400551 22.2298314,8.51339073 Z" id="Oval" fill-opacity="0.5" fill="#1EA61C" transform="translate(22.341327, 8.705691) rotate(-44.000000) translate(-22.341327, -8.705691) "></path>
                <path d="M36.4443016,12.4763704 C36.5829823,12.8057896 36.6954841,13.3530081 36.7818071,14.118026 C36.8030937,14.3635792 36.758814,14.9934632 36.6489681,16.0076782 L37.567946,16.9429584 C37.5342936,16.6547408 37.5868951,16.1600528 37.7257505,15.4588944 C37.864606,14.7577359 37.7989437,13.9162235 37.5287638,12.9343572 L36.4443016,12.4763704 Z" id="Path-19" stroke="#006E4A" fill="#006E4A"></path>
                <path d="M31.1765813,10.0695846 C31.4261452,9.73881063 31.174372,9.52732653 31.3735993,9.20409581 C31.5728266,8.88086508 30.8136025,8.87047982 30.3699549,8.86813299 C29.9263073,8.86578617 29.3430391,8.80462397 29.3554566,9.11099299 C29.3678741,9.41736202 30.9270175,10.4003586 31.1765813,10.0695846 Z" id="Oval" fill-opacity="0.2" fill="#6FC556" transform="translate(30.380762, 9.499185) rotate(-24.000000) translate(-30.380762, -9.499185) "></path>
                <path d="M34.4326367,9.730043 C34.6822006,9.39926902 36.5102446,10.5525314 36.709472,10.2293006 C36.9086993,9.90606991 33.7261601,7.85296929 33.2825125,7.85061376 C32.8388649,7.84827565 32.2878507,8.32072175 32.3002682,8.62709078 C32.3126856,8.9334598 34.1830729,10.060817 34.4326367,9.730043 Z" id="Oval" fill-opacity="0.5" fill="#6FC556" transform="translate(34.509250, 9.068849) rotate(-24.000000) translate(-34.509250, -9.068849) "></path>
                <path d="M41.2892445,12.3375498 C41.5092698,12.1215393 39.5349511,9.16432898 39.4346818,10.0509862 C39.3344125,10.9376435 38.0411748,8.80747128 37.2762493,9.38445398 C36.9072835,9.66276459 37.77676,10.4099311 38.8004796,11.0846473 C39.8990956,11.8087265 41.1753495,12.4493666 41.2892445,12.3375498 Z" id="Oval" fill="#6FC556" opacity="0.3" transform="translate(39.248080, 10.817032) rotate(-24.000000) translate(-39.248080, -10.817032) "></path>
                <path d="M25.9381289,3.00538415 C24.9096323,4.12576944 25.4768448,4.67631111 23.1733628,4.41955371 C23.3038657,4.58099513 24.8926265,4.92070969 23.8767942,5.36503498 C24.9944792,5.1938379 24.3471705,6.48048672 24.5332226,6.80860021 C24.6783914,5.18714744 26.5232678,4.72206205 25.0732765,8.20129826 C25.3291853,8.1994501 26.2089267,5.791847 26.3210096,7.6653727 C26.7830139,6.37515245 26.3329569,3.50373644 25.9381289,3.00538415 Z" id="Path-22" fill="#008327"></path>
                <path d="M15.9942725,3.39883817 C16.6196878,3.92530006 17.3900395,4.27200791 18.3053278,4.43896172 C17.7334515,4.85970073 17.2009842,5.15454964 16.707926,5.32350843 C18.776455,5.23328397 20.1826057,5.89157551 20.9263781,7.29838304 C15.9081438,6.17774899 16.712346,7.72654253 14.6959471,7.89303925 C17.388273,3.78173745 6.83906627,5.59289137 3.78645639,8.57918549 C6.7112963,4.74277141 10.7805683,3.01598897 15.9942725,3.39883817 Z" id="Path-23" fill-opacity="0.5" fill="#5CB54C"></path>
                <path d="M23.7988415,2.16477361 C24.0104319,2.16626517 24.0729323,1.86548305 24.1774419,1.53021807 C24.2819515,1.1949531 23.9376012,0.89981853 23.7898055,0.890246528 C23.6420098,0.880674527 23.2380532,0.955979758 23.2405484,1.30792916 C23.2430436,1.65987855 23.587251,2.16327091 23.7988415,2.16477361 Z" id="Oval" fill="#5CB54C" transform="translate(23.718701, 1.527121) rotate(-41.000000) translate(-23.718701, -1.527121) "></path>
                <path d="M41.8221461,20.2400601 C42.1048867,20.2420561 42.1865613,19.5802566 42.3241584,18.8423731 C42.4617556,18.1044895 41.9998227,17.4575925 41.8022765,17.4374459 C41.6047303,17.4172993 41.0654159,17.5853609 41.0709028,18.3592802 C41.0763896,19.1331995 41.5394055,20.238055 41.8221461,20.2400601 Z" id="Oval" fill="#5CB54C" transform="translate(41.710103, 18.837974) rotate(-41.000000) translate(-41.710103, -18.837974) "></path>
                <path d="M35.0945159,15.480937 C35.3772565,15.4829351 35.0290669,14.2591357 34.8256769,12.7667644 C34.6222869,11.2743931 32.8783365,10.638657 32.4812403,10.9133666 C32.0841441,11.1880763 33.9047994,12.4991633 33.9102862,13.2730825 C33.9157731,14.0470018 34.8117753,15.4789339 35.0945159,15.480937 Z" id="Oval" fill="#5CB54C" transform="translate(33.812710, 13.165976) rotate(-41.000000) translate(-33.812710, -13.165976) "></path>
            </g>
        </g>
    </g>
</svg>