<?xml version="1.0" encoding="UTF-8"?>
<svg width="2898px" height="2955px" viewBox="0 0 2898 2955" version="1.1" xmlns="http://www.w3.org/2000/svg" xmlns:xlink="http://www.w3.org/1999/xlink">
    <title>Green</title>
    <g id="Page-1" stroke="none" stroke-width="1" fill="none" fill-rule="evenodd">
        <path d="M2861.5,2955 L2825,2941 L2788.5,2955 L2754.5,2941.959 L2720.5,2955 L2684,2941 L2647.5,2955 L2611,2941 L2574.5,2955 L2538,2941 L2501.5,2955 L2465,2941 L2428.5,2955 L2392,2941 L2355.5,2955 L2320.5,2941.575 L2285.5,2955 L2249,2941 L2212.5,2955 L2176,2941 L2139.5,2955 L2103,2941 L2066.5,2955 L2030,2941 L1993.5,2955 L1957,2941 L1920.5,2955 L1885.5,2941.575 L1850.5,2955 L1814,2941 L1777.5,2955 L1741,2941 L1704.5,2955 L1668,2941 L1631.5,2955 L1595,2941 L1558.5,2955 L1522,2941 L1485.5,2955 L1449,2941 L1412.5,2955 L1376,2941 L1339.5,2955 L1305.5,2941.959 L1271.5,2955 L1235,2941 L1198.5,2955 L1162,2941 L1125.5,2955 L1089,2941 L1052.5,2955 L1016,2941 L979.5,2955 L943,2941 L906.5,2955 L871.5,2941.575 L836.5,2955 L800,2941 L763.5,2955 L727,2941 L690.5,2955 L654,2941 L617.5,2955 L581,2941 L544.5,2955 L508,2941 L471.5,2955 L436.5,2941.575 L401.5,2955 L365,2941 L328.5,2955 L292,2941 L255.5,2955 L219,2941 L182.5,2955 L146,2941 L109.5,2955 L73,2941 L36.5,2955 L0,2941 L0,14 L36.5,0 L73,14 L109.5,0 L146,14 L182.5,0 L219,14 L255.5,0 L292,14 L328.5,0 L365,14 L401.5,0 L436.5,13.425 L471.5,0 L508,14 L544.5,0 L581,14 L617.5,0 L654,14 L690.5,0 L727,14 L763.5,0 L800,14 L836.5,0 L871.5,13.425 L906.5,0 L943,14 L979.5,0 L1016,14 L1052.5,0 L1089,14 L1125.5,0 L1162,14 L1198.5,0 L1235,14 L1271.5,0 L1305.5,13.041 L1339.5,0 L1376,14 L1412.5,0 L1449,14 L1485.5,0 L1522,14 L1558.5,0 L1595,14 L1631.5,0 L1668,14 L1704.5,0 L1741,14 L1777.5,0 L1814,14 L1850.5,0 L1885.5,13.425 L1920.5,0 L1957,14 L1993.5,0 L2030,14 L2066.5,0 L2103,14 L2139.5,0 L2176,14 L2212.5,0 L2249,14 L2285.5,0 L2320.5,13.425 L2355.5,0 L2392,14 L2428.5,0 L2465,14 L2501.5,0 L2538,14 L2574.5,0 L2611,14 L2647.5,0 L2684,14 L2720.5,0 L2754.5,13.041 L2788.5,0 L2825,14 L2861.5,0 L2898,14 L2898,2941 L2861.5,2955 Z" id="Combined-Shape" fill="#006E4A"></path>
    </g>
</svg>